<?xml version="1.0" encoding="utf-8"?>
<!-- Generator: Adobe Illustrator 24.0.1, SVG Export Plug-In . SVG Version: 6.00 Build 0)  -->
<svg version="1.1" id="Lag_1" xmlns="http://www.w3.org/2000/svg" xmlns:xlink="http://www.w3.org/1999/xlink" x="0px" y="0px"
	 viewBox="0 0 100 71.42" style="enable-background:new 0 0 100 71.42;" xml:space="preserve">
<style type="text/css">
	.st0{fill-rule:evenodd;clip-rule:evenodd;fill:#E0A988;}
	.st1{fill:#E0A988;}
</style>
<path class="st0" d="M76.4,34.88c-8.77,2.01-14.12,10.49-12.08,18.87c2.04,8.38,10.74,13.65,19.52,11.64
	c8.77-2.01,14.12-10.49,12.08-18.87C93.87,38.14,85.17,32.87,76.4,34.88z M60.77,54.57c-2.54-10.43,4.13-20.79,14.76-23.22
	c10.64-2.43,21.38,3.94,23.92,14.37C102,56.14,95.33,66.5,84.7,68.93C74.06,71.37,63.31,64.99,60.77,54.57z"/>
<path class="st0" d="M16.17,35.53C7.39,37.53,2.04,46.02,4.09,54.4S14.83,68.05,23.6,66.05c8.77-2.01,14.12-10.49,12.08-18.87
	C33.64,38.79,24.94,33.52,16.17,35.53z M0.54,55.21C-2,44.79,4.67,34.43,15.3,31.99c10.63-2.43,21.38,3.94,23.92,14.37
	c2.54,10.43-4.13,20.79-14.76,23.22C13.83,72.01,3.08,65.64,0.54,55.21z"/>
<path class="st1" d="M80.12,48.09c-0.05,0-0.1,0.01-0.15,0.01c-1.1-2.86-7.88-20.57-8.24-22.04c-0.39-1.59,1.07-2.23,1.07-2.23
	c0.26,0.18,1.96,0,1.98-1.04c0.03-1.12-0.96-1.52-0.96-1.52c-0.21-0.68-0.73-1.44-0.73-1.44s-1.07-1.29-2.12-2.18
	c-1.04-0.88-2.61-0.81-2.61-0.81l-0.1-0.98c-1.35-0.05-1.33,0.46-1.33,0.46l-0.05,0.84l-6.08,0.13c-0.78,0.84,0,1.21,0,1.21
	l7.88,0.05v-0.44c3.48,0.84,3.48,3.5,3.48,3.5c-3.14,1.49-2.21,4.53-2.21,4.53l0.87,2.59c0.21,0.56,0.42,1.11,0.63,1.67l-33.5,0.41
	h-0.67c2.21-0.6,3.24-2.11,3.24-2.11c-0.16-0.87,4.33-0.92,4.33-0.92c3.92-1.84-0.14-2.58-0.14-2.58l-4.33,0.07l-3.51,0.07
	c-1.49,0.24-6.06-0.85-6.06-0.85s-1.39,0.14-1.46,1.5c-0.07,1.36,0.27,1.9,0.27,1.9s0.36,2.02,3.38,2.71
	c1.27,0.29,2.18,0.38,2.79,0.4l0.58,3.04l0.78,2.39l-0.73,0.62L30.25,31H9.46v0.83h20.43l6.09,5.6L23.79,47.79
	c-1.95,0.04-3.15,0.07-3.15,0.07s-2.76,0.98-2.87,3.22c-0.11,2.23,2.59,3.33,2.59,3.33l9.56,2.02l9.05,1.91v1.58L41.83,63
	c0,0,2.3,0.93,2.14-1.47l-1.69-2.34c0,0,1.63,0.11,2.64,0.49c1.01,0.38,3.76,0.11,3.76,0.11s3.71-1.51,4.39-4.27
	c0.52-2.14-0.2-4.38-1.08-5.63l18.92-17.44h1.3c2.05,5.41,4.11,10.83,6.16,16.24c-0.64,0.49-1.04,1.25-1.04,2.11
	c0,1.49,1.25,2.7,2.78,2.7s2.78-1.21,2.78-2.7C82.9,49.3,81.66,48.09,80.12,48.09z M26.21,47.74l11.41-9.82l3.17,9.77
	C35.86,47.62,30.25,47.68,26.21,47.74z M50.7,48.73c-0.61-0.33-1.76-0.77-3.86-0.87c-1.22-0.06-2.61-0.1-4.11-0.14l-4.8-15.07h29.91
	L50.7,48.73z"/>
</svg>
