<?xml version="1.0" encoding="utf-8"?>
<!-- Generator: Adobe Illustrator 24.0.1, SVG Export Plug-In . SVG Version: 6.00 Build 0)  -->
<svg version="1.1" id="Lag_1" xmlns="http://www.w3.org/2000/svg" xmlns:xlink="http://www.w3.org/1999/xlink" x="0px" y="0px"
	 viewBox="0 0 57.05 57.05" style="enable-background:new 0 0 57.05 57.05;" xml:space="preserve">
<style type="text/css">
	.st0{fill:#E0A988;}
	.st1{fill:#543F2D;}
</style>
<path class="st0" d="M51.75,45.92c1.16-1.47,2.17-3.23,2.98-5.24c0.76-1.89,1.35-3.96,1.74-6.17c0.37-2.1,0.56-4.25,0.56-6.4V28.1
	v-0.01c0.21-6.92-2.15-10.68-5.14-15.44l-0.06-0.1l-0.03-0.12c-0.45-1.78-1.35-3.47-2.67-5.03c-1.26-1.49-2.86-2.81-4.76-3.94
	c-1.85-1.09-3.89-1.95-6.08-2.55C36.1,0.3,33.9,0,31.73,0c-1.14,0-2.25,0.09-3.31,0.25c-2.61,0.42-5.19,1.02-7.69,1.8
	c-2.72,0.85-5.21,1.86-7.39,3c-2.39,1.26-4.36,2.66-5.86,4.17c-1.62,1.63-2.7,3.38-3.19,5.2l-0.03,0.12l-0.07,0.1
	C2.84,16.7,1.8,18.89,1.1,21.17C0.37,23.55,0,26.07,0,28.66c0,1.55,0.17,3.2,0.49,4.89c0.33,1.69,0.8,3.38,1.43,5.04
	c1.29,3.45,3.1,6.55,5.25,8.95l0.09,0.1l0.05,0.13c0.52,1.36,1.51,2.64,2.95,3.82c1.37,1.12,3.1,2.11,5.14,2.95
	c1.94,0.8,4.09,1.42,6.36,1.86c2.17,0.41,4.4,0.64,6.48,0.64l0.18-0.04c3.41-0.69,6.95-1.41,10.22-2.52
	c1.75-0.59,3.28-1.25,4.66-1.99c1.54-0.83,2.86-1.76,4.03-2.83l0.06-0.06l0.08-0.04C49.06,48.72,50.5,47.49,51.75,45.92z"/>
<path class="st1" d="M26.21,13.24c0,1.5,0.94,2.44,2.52,2.44c1.63,0,2.52-0.9,2.52-2.44c0-1.54-0.9-2.48-2.48-2.48
	C27.15,10.76,26.21,11.7,26.21,13.24z M26.55,38.57c0,1.54,0.81,2.01,1.93,2.01h0.43c1.11,0,1.88-0.47,1.88-2.01v-16.9
	c0-1.58-0.77-2.05-1.88-2.05h-0.43c-1.11,0-1.93,0.51-1.93,2.05V38.57z"/>
</svg>
