<?xml version="1.0" encoding="utf-8"?>
<!-- Generator: Adobe Illustrator 24.0.1, SVG Export Plug-In . SVG Version: 6.00 Build 0)  -->
<svg version="1.1" id="Lag_1" xmlns="http://www.w3.org/2000/svg" xmlns:xlink="http://www.w3.org/1999/xlink" x="0px" y="0px"
	 viewBox="0 0 153.63 180.05" style="enable-background:new 0 0 153.63 180.05;" xml:space="preserve">
<style type="text/css">
	.st0{fill:#C2D22E;}
</style>
<path class="st0" d="M136.55,74.14h-11.16V40.49c0,0-8.44-40.49-49.24-40.49C35.34,0,27.31,37.87,27.31,37.87v36.27H17.08
	C7.68,74.14,0,81.82,0,91.21v71.76c0,9.39,7.68,17.08,17.08,17.08h119.48c9.39,0,17.08-7.68,17.08-17.08V91.21
	C153.63,81.82,145.95,74.14,136.55,74.14z M87.6,148.6c-0.39,3.14-3.93,4.58-3.93,4.58s-11.78,0.39-14.79,0
	c-3.01-0.39-3.66-4.58-3.66-4.58l2.88-19.89c0,0-7.85-4.19-6.81-13.74c1.05-9.55,9.03-14.4,15.53-14.13
	c6.5,0.26,13.79,5.5,14.58,14.66c0.79,9.16-7.07,13.22-7.07,13.22S87.99,145.46,87.6,148.6z M104.45,74.14H46.16V42.58
	c0,0,5.65-24.78,29.53-23.39c23.88,1.4,28.76,22.34,28.76,22.34V74.14z"/>
</svg>
