<?xml version="1.0" encoding="utf-8"?>
<!-- Generator: Adobe Illustrator 24.0.1, SVG Export Plug-In . SVG Version: 6.00 Build 0)  -->
<svg version="1.1" id="Lag_1" xmlns="http://www.w3.org/2000/svg" xmlns:xlink="http://www.w3.org/1999/xlink" x="0px" y="0px"
	 viewBox="0 0 100 71.42" style="enable-background:new 0 0 100 71.42;" xml:space="preserve">
<style type="text/css">
	.st0{fill:#C2D22E;}
</style>
<path class="st0" d="M53.05,70.87h5.33l8.63-27.14c0,0,4.13,2.66,11.14-3.49c7.01-6.15,15.29-17.26,20.76-15.8
	c5.47,1.45-11.09-5.86-16.2-5.66l-3.97-0.2l-5.98,0.2c0,0-8.37,2.15-12.22,8.9c-3.85,6.75-2.47,9.82-0.85,11.45
	c0,0-0.17-3.76,6.66-9.48c6.84-5.72,13.5-5.04,13.5-5.04s-9.14,3.76-11.03,6.58C66.95,34,63.35,37,63.1,39.21
	c-0.26,2.22-7.01,20.58-7.01,20.58l-1.18-0.08l-9.17-27.74c0,0-4.56-9.74-10.73-13.09c-6.17-3.34-11.25-5.31-11.25-5.31
	s3.52-0.98,8.65,1.09c5.14,2.07,8.19,4.91,8.19,4.91s5.45,3.51,8.9,11.24c0,0,1.66,1.56,1.43-1.5c-0.23-3.06-0.81-8.76-0.81-8.76
	s-2.59-7.33-8.82-10.38s-2.48-1.73-12-4.32C19.79,3.27,0,12.9,0,12.9s5.37,0.52,6.17,1.61c0,0,5.71,1.44,8.94,6.63
	c3.23,5.19,15.28,14.94,15.28,14.94s5.31,3.28,10.56,1.79L53.05,70.87z"/>
</svg>
