<?xml version="1.0" encoding="utf-8"?>
<!-- Generator: Adobe Illustrator 23.0.6, SVG Export Plug-In . SVG Version: 6.00 Build 0)  -->
<svg version="1.1" id="Lag_1" xmlns="http://www.w3.org/2000/svg" xmlns:xlink="http://www.w3.org/1999/xlink" x="0px" y="0px"
	 viewBox="0 0 65.9 62.3" style="enable-background:new 0 0 65.9 62.3;" xml:space="preserve">
<style type="text/css">
	.st0{fill:#79934A;}
</style>
<path class="st0" d="M16.6,18.2h-8c-1,0-1.8-0.8-1.8-1.8V8.6c0-1,0.8-1.8,1.8-1.8h8c1,0,1.8,0.8,1.8,1.8v7.7
	C18.4,17.4,17.6,18.2,16.6,18.2z"/>
<path class="st0" d="M16.6,52.2h-8c-1,0-1.8-0.8-1.8-1.8v-7.7c0-1,0.8-1.8,1.8-1.8h8c1,0,1.8,0.8,1.8,1.8v7.7
	C18.4,51.3,17.6,52.2,16.6,52.2z"/>
<path class="st0" d="M52,18.2h-8c-1,0-1.8-0.8-1.8-1.8V8.6c0-1,0.8-1.8,1.8-1.8h8c1,0,1.8,0.8,1.8,1.8v7.7
	C53.9,17.4,53,18.2,52,18.2z"/>
<path class="st0" d="M6.9,22.2c0,0,0.1-1.9,1.5-1.9c1.4,0,14.2,0,14.2,0s1.6,0.1,1.6,1.9c0,1.8-1.8,1.7-1.8,1.7l-13.9,0
	C8.5,23.9,7.2,23.9,6.9,22.2z"/>
<path class="st0" d="M20.7,8.3c0,0,0.3-1.5,1.8-1.5c1.5-0.1,1.7,1.5,1.7,1.7c0,0.2,0,0.9,0,0.9h4.4V8.3c0,0,0.1-1.5,1.7-1.5
	c1.5,0,1.9,1.2,1.9,1.4c0,0.3,0,6.9,0,6.9s-0.3,1.6-1.9,1.5c-1.6-0.1-1.8-1.6-1.8-1.7c0.1-0.1,0-1.8,0-1.8l-4.3,0c0,0,0,1.1,0,1.3
	c0,0.2-0.5,1.4-1.7,1.4c-1.2-0.1-1.9-0.6-1.9-1.5C20.6,13.3,20.7,8.3,20.7,8.3z"/>
<path class="st0" d="M34.6,18.8V8.3c0,0,0.3-1.6,1.8-1.5c1.4,0.1,1.9,1,1.9,1.4c0,0.4,0,10.4,0,10.4s-0.2,1.7-1.7,1.6
	C35,20.2,34.6,19.1,34.6,18.8z"/>
<path class="st0" d="M25.7,22.9v-2.2c0,0,0.2-1.6,1.8-1.6c1.6,0,1.9,1.2,1.9,1.4c0,0.1,0,2.4,0,2.4s-0.3,1.5-1.7,1.5
	C26.3,24.5,25.7,23.1,25.7,22.9z"/>
<path class="st0" d="M49.1,48.5c0,0,0,2.1,0,2.2c0,0.1,0.3,1.5,1.9,1.4c1.6,0,1.8-1.5,1.8-1.5s0-11.7,0-11.8c0-0.1-0.3-1.3-1.8-1.4
	c-1.5-0.1-1.8,1.6-1.8,1.6v5.8l-6.5,0c0,0-1.5,0.4-1.5,1.9c0,1.5,1.1,1.8,1.6,1.8C43.2,48.5,49.1,48.5,49.1,48.5z"/>
<path class="st0" d="M40.3,39.6h2.4c0,0,1.5,0.2,1.5,1.8c0,1.6-1.4,1.9-1.4,1.9h-2.5c0,0-1.5-0.4-1.4-1.8
	C38.9,40.1,40.1,39.6,40.3,39.6z"/>
<path class="st0" d="M33.9,48.5v-8c0,0,0.4-1.5,1.9-1.5c1.5,0,1.8,1.5,1.8,1.5v10.1c0,0-0.1,1.5-1.6,1.5c-1.5,0-5.9,0-5.9,0
	s-1.8-0.1-1.8-1.8c0.1-1.7,1.3-1.9,1.7-1.9C30.5,48.5,33.9,48.5,33.9,48.5z"/>
<path class="st0" d="M20,46.8v-6.3c0,0,0.4-1.3,1.8-1.4c1.5,0,1.8,1.4,1.8,1.4v6.3c0,0-0.3,1.4-1.8,1.4C20.3,48.2,20,46.8,20,46.8z"
	/>
<path class="st0" d="M40.2,41.4h2.6c0,0,1.4,0.5,1.3,1.8c-0.1,1.3-1,1.8-1.4,1.8c-0.4,0.1-2.5,0-2.5,0s-1.4-0.4-1.4-1.8
	C39,41.7,40.2,41.4,40.2,41.4z"/>
<path class="st0" d="M21,33.4h10.1v-11c0,0,0.3-1.4,1.9-1.4c1.6,0,1.8,1.3,1.8,1.5c0,0.2,0,12.9,0,12.9s-0.1,1.4-1.4,1.6
	c-1.3,0.1-12.4,0-12.4,0s-1.5-0.3-1.4-1.9C19.6,33.6,21,33.4,21,33.4z"/>
<path class="st0" d="M11.2,37.6v-6.3c0,0,0.4-1.3,1.8-1.4c1.5,0,1.8,1.4,1.8,1.4v6.3c0,0-0.3,1.4-1.8,1.4
	C11.5,39.1,11.2,37.6,11.2,37.6z"/>
<path class="st0" d="M41.7,37.2v-6.3c0,0,0.4-1.3,1.8-1.4c1.5,0,1.8,1.4,1.8,1.4v6.3c0,0-0.3,1.4-1.8,1.4
	C42,38.6,41.7,37.2,41.7,37.2z"/>
<path class="st0" d="M57.2,28.9v-6.3c0,0,0.4-1.3,1.8-1.4c1.5,0,1.8,1.4,1.8,1.4v6.3c0,0-0.3,1.4-1.8,1.4
	C57.5,30.4,57.2,28.9,57.2,28.9z"/>
<path class="st0" d="M46,24.1h-4.1c0,0-1.5-0.3-1.5-1.9c0-1.6,1.8-1.8,1.8-1.8H52c0,0,1.5,0.5,1.4,1.8c0,1.4-1.2,1.8-1.5,1.8
	c-0.3,0-2.2,0-2.2,0H46z"/>
</svg>
