<?xml version="1.0" encoding="utf-8"?>
<!-- Generator: Adobe Illustrator 23.0.6, SVG Export Plug-In . SVG Version: 6.00 Build 0)  -->
<svg version="1.1" id="Lag_1" xmlns="http://www.w3.org/2000/svg" xmlns:xlink="http://www.w3.org/1999/xlink" x="0px" y="0px"
	 viewBox="0 0 65.9 62.3" style="enable-background:new 0 0 65.9 62.3;" xml:space="preserve">
<style type="text/css">
	.st0{clip-path:url(#SVGID_2_);fill:#9F8B77;}
</style>
<g>
	<defs>
		
			<rect id="SVGID_1_" x="7.3" y="0.7" transform="matrix(0.777 -0.6295 0.6295 0.777 -11.3217 26.0391)" width="47.6" height="56.7"/>
	</defs>
	<clipPath id="SVGID_2_">
		<use xlink:href="#SVGID_1_"  style="overflow:visible;"/>
	</clipPath>
	<path class="st0" d="M52.6,17.7c-7.7-9.3-16.8-9.1-20.1-9c-3.3,0.1-10,1.8-13.6,5.4l2.9,3.6l-1-1.3l-7.1-8.8
		c-0.5-0.6-1.5-0.3-1.6,0.4l-0.6,7.2l-0.7,8.4c0,0.5,0.3,0.9,0.8,1l8.4,1l7.1,0.9c0.8,0.1,1.3-0.8,0.8-1.4l-5.3-6.6
		c0,0,8.9-8.1,20.7-1.4c0,0,14.5,9.3,5.4,25c0,0-6.6,10.9-20.1,7.2c0,0-4.5-1.1-8-5.1c0,0-0.6-0.7-1.3-0.2C18.7,44.8,16,47,16,47
		s-0.6,0.5,0,1.2c0.7,0.8,4.7,5.6,12.3,7.2c7.6,1.7,10.6,0.2,10.6,0.2c14.2-3.7,17.1-14,17.6-15.6C57,38.5,60.3,27,52.6,17.7z"/>
</g>
</svg>
