<?xml version="1.0" encoding="utf-8"?>
<!-- Generator: Adobe Illustrator 23.0.6, SVG Export Plug-In . SVG Version: 6.00 Build 0)  -->
<svg version="1.1" id="Lag_1" xmlns="http://www.w3.org/2000/svg" xmlns:xlink="http://www.w3.org/1999/xlink" x="0px" y="0px"
	 viewBox="0 0 226.8 226.8" style="enable-background:new 0 0 226.8 226.8;" xml:space="preserve">
<style type="text/css">
	.st0{fill:#EFEDDF;stroke:#9F8B77;stroke-width:0.5;stroke-miterlimit:10;}
	.st1{fill:#FFFFFF;}
	.st2{opacity:0.4;}
	.st3{fill:#9F8B77;}
</style>
<g>
	
		<image style="overflow:visible;opacity:0.5;enable-background:new    ;" width="588" height="342" xlink:href="463C7747DFB51455.png"  transform="matrix(0.3947 0 0 0.3947 -4.0679 20.9394)">
	</image>
	<g>
		<g>
			<path class="st0" d="M8.6,43.7c1.7-5.3,6-9.5,11.5-11l8.7-2.3c1.2-0.3,2.3-0.5,3.5-0.5l51.6-3.3h61.1l36.8,3.3l12.3,2.5
				c3,0.7,5.8,2,8,4.2l0.3,0.3c3,2.8,4.8,6.7,5.2,10.8l1,13.3v32.3l-1.3,16.1c-0.2,1.3-0.3,2.5-0.7,3.7l-2.5,7.8
				c-1,3.3-3.5,6-6.7,7.3c-1.5,0.7-3.2,1-5,1h-18l-18.5,1.8c-1.2,0.2-2.2,0.2-3.3,0l-16.8-1.7c-1.2-0.2-2.2-0.2-3.3,0l-16.8,1.7
				c-1,0.2-1.8,0.2-2.8,0l-26.5-1.8c-0.8,0-1.8,0-2.7,0l-20.3,2.2H43.2l-22.3-1.8c-1.3-0.2-2.7-0.5-4-1c-3.7-1.5-6.3-4.7-7.3-8.5
				l-3.5-14c-0.3-1.3-0.5-2.7-0.5-4v-21V65.3l1.3-15.5c0.2-1.2,0.3-2.5,0.7-3.7L8.6,43.7z"/>
		</g>
	</g>
</g>
<g>
	<path class="st1" d="M21.2,56.7c0.2-0.7,0.2-1.3,0.3-2c0-0.8,0.3-1.5,0.7-2.3c0.3-0.7,0.7-1.3,1-2c1-1.5,2.2-2.5,3.7-3.3
		c0.2-0.2,0.3-0.2,0.5-0.3c0,0,0.2,0,0.3,0c0.5,0.3,1,0.5,1.7,0.8c0.2,0.2,0.3,0.2,0.7,0c0.5-0.2,1.2-0.5,1.7-0.7
		c0.5-0.2,1.2-0.3,1.7-0.5c0.2,0,0.5,0,0.7,0c0.8,0,1.7,0,2.5,0c0.8,0,1.5,0.2,2.3,0.5c0.7,0.2,1.5,0.5,2.2,0.8
		c1.2,0.5,2.2,1.2,3.2,2.2c1,1,1.8,2.2,2.5,3.3c0.3,0.7,0.7,1.5,0.8,2.3c0.3,1.2,0.5,2.3,0.5,3.5c0,0.8,0,1.7-0.2,2.5
		c-0.2,0.8-0.5,1.7-0.8,2.5c-0.2,0.3,0,0.5,0.2,0.8c0.3,0.5,0.5,1,0.8,1.5c0.2,0.3-0.2,0.7-0.3,1c-0.7,1.2-1.5,2.2-2.5,3
		c-0.8,0.7-1.7,1.2-2.7,1.7c-1.8,0.8-3.3,1.2-5,1.2c-0.8,0-1.7-0.2-2.5-0.3c-1-0.2-1.8-0.5-2.7-1c-1.5-0.8-2.8-1.8-3.7-3.3
		c-0.3-0.5-0.7-1-1-1.5c-0.2-0.2-0.3-0.3-0.7-0.5c-1.8-1.2-3.5-2.7-4.5-4.5c-0.5-1-1-2-1.2-3.2C21.4,58.2,21.2,57.3,21.2,56.7z
		 M35.5,48.2c-1.5,0-3,0.2-4.5,0.8c-0.3,0.2-0.3,0.2,0,0.3c0.3,0.3,0.5,0.5,0.8,0.8c0.7,0.8,1.2,1.7,1.5,2.7
		c0.2,0.7,0.5,1.5,0.7,2.3c0.2,1.2,0.2,2.3,0,3.5c-0.2,0.7-0.3,1.5-0.7,2.2V61h0.2c0.2,0,0.3-0.2,0.5-0.2c0.5-0.2,1-0.3,1.7-0.3
		c0.3,0,0.7-0.2,1-0.2c1.2,0,2.3-0.2,3.3,0.2c0.5,0.2,1.2,0.3,1.7,0.5c0.3,0.2,0.8,0.3,1.2,0.5c0.8,0.3,1.5,0.8,2.2,1.5
		c0,0,0.2,0.2,0.3,0.2l0.2-0.2c0-0.2,0.2-0.5,0.2-0.7c0.2-0.5,0.3-1,0.3-1.5c0.2-1,0.2-2,0-3c0-0.8-0.3-1.7-0.7-2.5
		c-0.3-0.8-0.8-1.8-1.3-2.5c-1.3-1.8-3.2-3.2-5.3-4C37.9,48.4,36.7,48.2,35.5,48.2z M28.4,61.5L28.4,61.5c0,0.8,0,1.7,0,2.5
		c0,0,0,0.2,0.2,0.2h0.2c0.2-0.2,0.3-0.3,0.5-0.5c1.3-1.2,2.3-2.8,3-4.5c0.3-0.8,0.3-1.7,0.3-2.5c0-0.5,0-1.2-0.2-1.7
		c0-0.2-0.2-0.2-0.2-0.3c0,0-0.2,0-0.3,0.2c-1.2,1.2-2.2,2.5-3.3,3.7c-0.2,0.2-0.2,0.3-0.2,0.3C28.4,59.8,28.4,60.7,28.4,61.5z
		 M32.9,65.7L32.9,65.7c0.8,0,1.5,0,2.3,0c0.2,0,0.3,0,0.3-0.2c0.5-0.3,1.2-0.8,1.7-1.3c0.8-0.7,1.5-1.2,2.3-1.8l0.2-0.2L39.5,62
		c-0.2,0-0.5-0.2-0.7-0.2c-1.7-0.2-3.3-0.2-5,0.7c-1,0.5-2,1.2-2.8,1.8c-0.3,0.3-0.5,0.5-0.8,0.8L30,65.3c0.2,0,0.2,0.2,0.3,0.2
		C31.4,65.7,32.2,65.7,32.9,65.7z M34.9,67.7L34.9,67.7c-0.2,0-0.2,0-0.2,0s0,0.2,0.2,0.2c0.2,0.2,0.3,0.2,0.5,0.3
		c1.5,1,2.8,2,4.3,3c0.2,0,0.2,0,0.3,0c0.8-0.2,1.7-0.5,2.3-1c0.2-0.2,0.2-0.2,0-0.3c-1-0.8-2-1.5-3-2.3c-0.2,0-0.3-0.2-0.3-0.2
		C37.4,67.7,36.2,67.7,34.9,67.7z M26.4,57.3L26.4,57.3c0-0.5,0-1,0-1.5c0-0.2,0-0.3-0.2-0.5c-0.7-0.8-1.5-1.5-2.2-2.3
		c-0.2-0.2-0.3-0.2-0.3,0c-0.2,0.2-0.2,0.3-0.2,0.5c-0.2,0.5-0.3,1-0.5,1.7c0,0.2,0,0.3,0.2,0.3c0.5,0.7,1,1.2,1.5,1.8
		c0.5,0.7,1,1.3,1.7,2c0,0,0.2,0,0.2,0.2l0.2-0.2C26.4,58.5,26.4,57.8,26.4,57.3z M28.5,49.2C28.4,49.2,28.4,49.2,28.5,49.2
		c-0.2,0.2-0.2,0.2-0.2,0.3c0,2,0,3.8,0,5.8v0.2c0,0,0.2,0,0.2-0.2c0.8-1,1.7-1.8,2.5-2.8v-0.2c-0.5-0.8-1-1.7-1.7-2.3
		C29.2,49.7,28.9,49.5,28.5,49.2z M41.9,65.7L41.9,65.7c1,0,2,0,3,0c0,0,0.2,0,0.2-0.2v-0.2c-0.2-0.2-0.3-0.3-0.3-0.3
		c-0.7-0.7-1.3-1.3-2.2-1.7c-0.2-0.2-0.5-0.2-0.7,0c-0.3,0.2-0.5,0.5-0.8,0.7c-0.7,0.5-1.3,1-2,1.5l-0.2,0.2c0.2,0,0.2,0.2,0.3,0.2
		C40,65.7,41,65.7,41.9,65.7z M30.5,67.7L30.5,67.7h-0.2v0.2c0,0.2,0.2,0.2,0.2,0.2c1.3,1.5,3,2.7,5,3.2c0,0,0.2,0,0.3,0
		c0,0,0.2,0,0.2-0.2c0,0,0-0.2-0.2-0.2c-0.2-0.2-0.3-0.2-0.7-0.3c-1.3-1-2.5-1.8-3.8-2.8c-0.2-0.2-0.3-0.2-0.7-0.2
		C30.9,67.7,30.7,67.7,30.5,67.7z M23.4,59.2L23.4,59.2c0,0.3,0.2,0.7,0.3,1c0.3,0.7,0.5,1.2,1,1.7c0.5,0.7,1,1.3,1.5,2
		c0,0,0.2,0,0.2,0.2v-0.2c0-0.3,0-0.7,0-0.8s0-0.3-0.2-0.3c-0.8-1-1.7-2-2.5-3.2C23.6,59.2,23.6,59.2,23.4,59.2z M26.4,51L26.4,51
		c0-0.3,0-0.7,0-1c0-0.2,0-0.2-0.2-0.3c-0.2,0-0.2,0-0.3,0.2c-0.3,0.3-0.5,0.5-0.8,0.8c-0.2,0.2-0.2,0.3,0,0.7
		c0.3,0.3,0.7,0.8,1,1.2c0,0,0.2,0,0.2,0.2l0.2-0.2C26.4,51.8,26.4,51.3,26.4,51z M42.7,67.7L42.7,67.7c-0.2,0-0.2,0-0.3,0
		c0,0,0,0.2,0.2,0.2c0.5,0.3,1,0.7,1.3,0.8c0,0,0.2,0,0.3,0c0.3-0.3,0.5-0.5,0.8-0.8c0.2-0.2,0.2-0.3-0.2-0.3
		C44.2,67.7,43.5,67.7,42.7,67.7z"/>
	<path class="st1" d="M90.3,61.8c0-1.7,0-3.3,0-5.2c0-0.5,0-0.5,0.5-0.5s1.2,0,1.7,0c0.3,0,0.3,0,0.3,0.3c0,0.2,0,0.2,0.2,0.3
		c0.2,0,0.2,0,0.3-0.2c0.8-0.7,1.7-0.8,2.7-0.5c0.5,0.2,0.8,0.3,1.2,0.7c0.2,0.2,0.2,0.2,0.3,0c0.5-0.5,1.2-0.7,1.8-0.7
		s1.3,0,1.8,0.2c1,0.3,1.7,1,2,2c0.2,0.8,0.2,1.5,0.2,2.3c0,2.2,0,4.3,0,6.5c0,0.2,0,0.3-0.3,0.3c-0.7,0-1.3,0-2,0
		c-0.5,0-0.5,0-0.5-0.5c0-1,0-2,0-3.2c0-1.3,0-2.7,0-3.8c0-0.7-0.3-1.2-1-1.3c-0.3-0.2-1,0.3-1.2,0.7c0,0.3-0.2,0.5-0.2,0.8
		c0,2.2,0,4.3,0,6.5c0,0.8,0.2,0.8-0.8,0.8c-0.5,0-1,0-1.5,0c-0.3,0-0.5-0.2-0.5-0.5c0-0.3,0-0.5,0-0.8c0-2,0-4.2,0-6.2
		c0-0.7-0.3-1-0.8-1.2c-0.7-0.2-1.3,0.3-1.3,1c0,2.3,0,4.8,0,7.2c0,0.5,0,0.5-0.5,0.5c-0.7,0-1.2,0-1.8,0c-0.3,0-0.3,0-0.3-0.3
		C90.3,65.3,90.3,63.7,90.3,61.8L90.3,61.8z"/>
	<path class="st1" d="M60.7,60.5c0,2.2,0,4.3,0,6.5c0,0.3-0.2,0.3-0.3,0.3c-0.8,0-1.7,0-2.5,0c-0.2,0-0.3-0.2-0.3-0.3
		c0-1.3,0-2.8,0-4.2c0-0.3,0-0.7,0-1c0-0.3,0-0.3-0.3-0.3c-0.8,0-1.8,0-2.7,0c-0.3,0-0.3,0.2-0.3,0.3c0,1.2,0,2.3,0,3.5
		c0,0.5,0,1.2,0,1.7c0,0.2,0,0.3-0.3,0.3c-0.8,0-1.5,0-2.3,0c-0.2,0-0.3,0-0.3-0.3c0-1,0-2,0-3.2c0-3.3,0-6.5,0-9.8
		c0-0.7,0-0.5,0.7-0.5s1.3,0,2,0c0.2,0,0.3,0,0.3,0.3c0,1.3,0,2.5,0,3.8c0,0.2,0,0.5,0,0.7s0,0.3,0.3,0.3c1,0,1.8,0,2.8,0
		c0.2,0,0.3-0.2,0.3-0.3c0-1.5,0-3,0-4.5c0-0.3,0-0.3,0.3-0.3c0.8,0,1.5,0,2.3,0c0.5,0,0.5,0,0.5,0.5C60.7,56.2,60.7,58.3,60.7,60.5
		L60.7,60.5z"/>
	<path class="st1" d="M67,63c-0.8,0-1.5,0-2.3,0c-0.2,0-0.3,0-0.3,0.3c0.2,0.5,0.2,1.2,0.7,1.5c0.3,0.2,1,0.2,1.3,0
		c0.3-0.3,0.5-0.5,0.7-1l0.2-0.2c0.7,0,1.3,0,2.2,0c0.3,0,0.3,0.2,0.3,0.3c0,0.5-0.2,1-0.5,1.5C68.7,66.3,68,67,67,67.3
		c-1.3,0.5-2.5,0.5-3.7-0.3c-0.8-0.5-1.2-1.2-1.7-2c-0.7-1.5-0.7-3-0.5-4.5c0.2-1.2,0.7-2.3,1.5-3.2c0.7-0.8,1.7-1.2,2.7-1.2
		c1,0,2,0.2,2.8,1c0.5,0.5,0.8,1.2,1.2,2c0.3,1.2,0.3,2.3,0.3,3.5c0,0.3,0,0.5-0.5,0.5C68.5,63,67.8,63,67,63L67,63z M65.5,60.7
		L65.5,60.7c0.3,0,0.7,0,1,0c0.2,0,0.3,0,0.3-0.2c0-0.5,0-0.8-0.3-1.3c-0.2-0.3-0.5-0.7-1-0.7c-0.5,0-0.8,0.2-1,0.7
		c-0.2,0.3-0.3,0.8-0.3,1.2c0,0.2,0.2,0.3,0.3,0.3C64.8,60.7,65.2,60.7,65.5,60.7z"/>
	<path class="st1" d="M89.6,62c0,1.7,0,3.3,0,5.2c0,0.3,0,0.5-0.5,0.5s-1.2,0-1.7,0c-0.2,0-0.3,0-0.3-0.2s-0.2-0.2-0.3,0
		C86.5,67.8,86,68,85.5,68s-1.2,0-1.7-0.2c-0.8-0.3-1.3-0.8-1.7-1.5c-0.7-1-0.7-2.2-0.8-3.3c0-1,0-2,0.3-3c0.2-0.7,0.3-1.5,0.8-2
		c0.7-0.8,1.5-1.3,2.5-1.2c0.7,0,1.3,0.2,1.8,0.7c0,0,0.2,0,0.2,0.2c0-0.2,0-0.2,0-0.3c0-0.3,0-0.3,0.3-0.3c0.7,0,1.2,0,1.8,0
		c0.2,0,0.3,0.2,0.3,0.3c0,0.2,0,0.5,0,0.7C89.6,58.8,89.6,60.5,89.6,62L89.6,62z M87.1,62L87.1,62c0-0.2,0-0.5,0-0.7
		c0-0.3,0-0.5,0-0.8c0-0.5-0.2-0.8-0.3-1.2c-0.3-0.5-1-0.8-1.7-0.3c-0.3,0.3-0.5,0.7-0.7,1.2c-0.2,0.7-0.2,1.3-0.2,2
		c0,0.7,0,1.5,0.5,2.2c0.3,0.5,0.7,0.8,1.2,0.8c0.7,0,1.3-0.8,1.3-1.3C87.1,63.2,87.1,62.5,87.1,62z"/>
	<path class="st1" d="M79.5,59.5c-0.3,0-0.7,0-1.2,0c-0.2,0-0.3,0-0.3-0.2c-0.2-0.7-1.2-1-1.7-0.5c-0.3,0.3-0.3,0.8,0,1
		c0.2,0.2,0.5,0.3,0.8,0.3c0.8,0.2,1.7,0.3,2.5,0.8c1,0.5,1.5,1.3,1.5,2.5c0,0.5,0,1.2-0.2,1.7c-0.3,0.8-1,1.5-1.8,2
		c-1.2,0.5-2.3,0.7-3.5,0.3C75,67.3,74.3,67,74,66.3c-0.5-0.7-0.8-1.3-0.8-2.2c0-0.2,0-0.3,0.3-0.3c0.7,0,1.3,0,2,0
		c0.2,0,0.3,0,0.3,0.3c0.2,0.7,1,1.2,1.7,1c0.3,0,0.7-0.2,0.8-0.5c0.2-0.5,0-1-0.5-1.2c-0.5-0.2-1.2-0.3-1.7-0.5
		c-1-0.2-1.8-0.7-2.3-1.5c-0.3-0.5-0.3-1.2-0.3-1.8c0-1.3,0.7-2.3,1.8-2.8c1-0.5,2.2-0.7,3.3-0.3c1.2,0.3,1.8,1,2.3,2.2
		c0.2,0.3,0.2,0.7,0.2,1c0,0-0.2,0.2-0.3,0.2C80.1,59.5,79.8,59.5,79.5,59.5L79.5,59.5z"/>
	<path class="st1" d="M70.2,60.5c0-2.2,0-4.2,0-6.3c0-0.5,0-0.5,0.5-0.5s1.2,0,1.7,0c0.2,0,0.3,0,0.3,0.3c0,2,0,4.2,0,6.2
		c0,2.2,0,4.5,0,6.7c0,0.8,0,0.7-0.7,0.7c-0.5,0-1,0-1.5,0c-0.3,0-0.3,0-0.3-0.3C70.2,64.8,70.2,62.7,70.2,60.5L70.2,60.5z"/>
</g>
<g>
	<g>
		<path class="st1" d="M128.3,47c0.2,0.2,0.3,0.2,0.5,0.2c0.3,0,0.7,0,0.8,0c0.5,0.2,1.2,0.2,1.7,0.3c0.5,0.2,1.2,0.3,1.7,0.7
			c0.7,0.3,1.2,0.8,1.5,1.3c0.3,0.7,0.7,1.2,0.8,2c0,0.2,0,0.3,0,0.3c0.2,0.7,0.2,1.3,0,2.2c-0.2,0.7-0.3,1.3-0.8,2
			c-0.3,0.5-0.7,0.8-1.2,1c0,0-0.2,0-0.3,0.2c0.2,0,0.2,0.2,0.3,0.2c0.7,0.3,1.2,0.8,1.7,1.5c0.5,0.8,0.7,1.8,0.7,2.8
			c0,0.7,0,1.3-0.3,2c-0.2,0.7-0.7,1.3-1.2,1.8c-0.5,0.5-1.2,1-1.8,1.3c-0.5,0.2-1.2,0.3-1.7,0.5c-0.2,0-0.2,0-0.3,0
			c-0.2,0-0.3,0.2-0.7,0.2c-0.3,0-0.7,0.2-1,0.2c-0.2,0-0.3,0-0.5,0c-0.5,0-1.2,0.2-1.7,0.2c-1.3,0-2.8,0-4.2,0c-2,0-4,0-6.2,0
			c-0.5,0-0.5,0-0.5-0.5c0-0.2,0-0.3,0-0.3c0-6.7,0-13.3,0-19.8c0-0.2,0-0.2,0-0.3C119.8,47,124.1,47,128.3,47z M122.6,61.5
			L122.6,61.5c0,0.7,0,1.2,0,1.8c0,0.5,0,0.5,0.5,0.5h0.2c1.3,0,2.7,0.2,4-0.3c0.3-0.2,0.5-0.3,0.7-0.5c0.2-0.2,0.3-0.5,0.3-0.8
			c0.2-0.7,0-1.3-0.2-1.8c-0.2-0.7-0.8-0.8-1.5-1c-0.3-0.2-0.7-0.2-1-0.2c-1,0-2,0-2.8,0c-0.2,0-0.2,0-0.2,0.2
			C122.6,60,122.6,60.8,122.6,61.5z M124.1,55.3L124.1,55.3c0.5,0,1.2,0,1.7,0c0.7,0,1.2-0.2,1.7-0.3c0.5-0.2,0.7-0.7,0.7-1
			c0-0.5,0-0.8,0-1.3s-0.2-0.8-0.5-1c-0.3-0.3-0.8-0.3-1.3-0.5c-1.2,0-2.2-0.2-3.3-0.2c-0.5,0-0.5,0-0.5,0.5v0.2c0,1,0,2,0,3
			c0,0.2,0,0.2,0,0.3c0,0.3,0,0.3,0.3,0.3C123.4,55.3,123.8,55.3,124.1,55.3z"/>
		<path class="st1" d="M165.2,47c0,0.2,0,0.3,0,0.5c0,3.2,0,6.5,0,9.7c0,0.3,0,0.7,0,1v0.2c0,0,0.2,0,0.2-0.2
			c0.3-0.5,0.7-1.2,1.2-1.7c0.3-0.7,0.8-1.2,1.2-1.7c0.5-0.7,1-1.3,1.5-2.2c0.3-0.5,0.7-0.8,0.8-1.3c0.2-0.2,0.2-0.2,0.5-0.2
			c1.2,0,2.3,0,3.3,0c0.8,0,1.8,0,2.7,0c0.2,0,0.3,0,0.5,0c0.2,0,0.3,0,0.3,0c0,0.2,0,0.2,0,0.3c-0.2,0.3-0.5,0.7-0.7,1
			c-0.5,0.7-1,1.3-1.3,2c-0.5,0.7-1,1.3-1.5,2c-0.7,0.8-1.2,1.7-1.8,2.5c-0.2,0.2-0.2,0.3,0,0.5c0.5,0.7,1,1.3,1.3,2
			c0.5,0.8,1.2,1.7,1.7,2.3c0.3,0.5,0.8,1.2,1.2,1.7s0.7,0.8,1,1.3c0.2,0.2,0.3,0.5,0.5,0.7c0.2,0.2,0,0.3-0.2,0.3
			c-2.3,0-4.7,0-6.8,0c-0.3,0-0.5,0-0.7-0.3c-0.5-0.8-1.2-1.7-1.7-2.5c-0.3-0.5-0.7-1-1-1.3c-0.5-0.7-1-1.5-1.3-2.2
			c-0.2-0.2-0.3-0.5-0.3-0.7l-0.2-0.2c0,0.2,0,0.2,0,0.3c0,0.5,0,1.2,0,1.7c0,1.7,0,3.5,0,5.2c0,0.3-0.2,0.3-0.3,0.3
			c-1.8,0-3.5,0-5.3,0c-0.3,0-0.8,0-1.2,0c-0.2,0-0.3,0-0.3-0.3c0-1.5,0-3.2,0-4.7c0-5.2,0-10.3,0-15.6c0-0.2,0-0.3,0-0.3
			C160.5,47,162.9,47,165.2,47z"/>
		<path class="st1" d="M155.2,47c0,0.8,0,1.7,0,2.7c0,6,0,11.8,0,17.8c0,0.5,0.2,0.7-0.5,0.5c-2,0-4,0-5.8,0c-0.5,0-0.5,0-0.5-0.5
			c0-2.2,0-4.5,0-6.7c0-4,0-8,0-12c0-0.7,0-1.2,0-1.8C150.4,47,152.7,47,155.2,47z"/>
		<path class="st1" d="M145.1,47c0,0.5,0,1,0,1.5c0,1.5,0,2.8,0,4.3c0,0.2,0,0.3-0.3,0.3c-2.2,0-4.3,0-6.5,0c-0.3,0-0.3,0-0.3-0.3
			c0-1,0-2.2,0-3.2c0-0.8,0-1.7,0-2.7C140.4,47,142.7,47,145.1,47z"/>
		<path class="st1" d="M195.5,62c0,1.8,0,3.5,0,5.3c0,0.7,0,0.7-0.7,0.7c-1.8,0-3.5,0-5.3,0c-0.5,0-0.5,0-0.5-0.5l0,0
			c0-0.2,0-0.3,0-0.5c-0.2,0-0.2,0.2-0.3,0.2c-0.3,0.2-0.7,0.3-1,0.5c-0.3,0.2-0.7,0.2-1,0.3c-0.3,0.2-0.8,0.2-1.2,0.3
			c-0.8,0-1.7,0.2-2.5,0.2c-0.5,0-1,0-1.5-0.2c-0.3,0-0.7-0.2-1-0.3c-0.3-0.2-0.7-0.3-1-0.7c-0.5-0.5-0.8-1-1.2-1.7
			c-0.3-1-0.3-2.2-0.3-3.3c0-1,0.5-2,1.2-2.7c0.3-0.3,0.8-0.7,1.3-0.8c0.3-0.2,0.7-0.2,1-0.3c0.2,0,0.2,0,0.3,0h0.2
			c1.8-0.5,3.5-0.3,5.3-0.3c0.3,0,0.5,0,0.8,0c0.2,0,0.3-0.2,0.3-0.3c0-0.5,0-1-0.2-1.3c0-0.3-0.3-0.7-0.8-0.8
			c-0.7-0.2-1.5-0.2-2.2-0.2c-1.3,0-2.8,0-4.2,0.2c-0.5,0-1,0.2-1.5,0.2c-0.3,0-0.3,0-0.3-0.3c0-1,0-2,0-3c0-0.2,0-0.3,0.3-0.3
			c1-0.2,2-0.3,3-0.7c2-0.5,4-0.3,6-0.3c0.7,0,1.3,0,2,0.2c0.7,0.2,1.2,0.3,1.7,0.5c0.7,0.3,1.3,0.8,1.8,1.3c0.3,0.5,0.7,1,0.8,1.5
			c0.2,0.5,0.3,1.2,0.3,1.7c0,0.2,0,0.3,0,0.5C195.5,58.5,195.5,60.3,195.5,62L195.5,62z M188.8,62.5L188.8,62.5c0-0.5,0-0.8,0-1.3
			c0-0.3-0.2-0.3-0.3-0.3c-0.7,0-1.2,0-1.8,0c-0.5,0-0.8,0-1.3,0.2c-0.3,0.2-0.7,0.7-0.7,1c0,0.5,0,0.8,0,1.3c0,0.3,0.5,1,0.7,1
			c0.3,0,0.7,0.2,1,0c0.5,0,0.8,0,1.3-0.2c0.2-0.2,0.5-0.2,0.8-0.3c0.2,0,0.3-0.2,0.3-0.3C188.8,63.3,188.8,62.8,188.8,62.5z"/>
		<path class="st1" d="M145.1,61.7c0,1.8,0,3.8,0,5.7c0,0.7,0.2,0.7-0.7,0.7c-2,0-4,0-6,0c-0.3,0-0.3,0-0.3-0.3s0-0.5,0-0.8
			c0-3.7,0-7.3,0-11c0-0.5,0-0.5,0.5-0.5c0.8,0,1.7,0,2.5,0c1.2,0,2.3,0,3.5,0c0.2,0,0.3,0,0.3,0.3c0,1.3,0,2.8,0,4.2
			C145.1,60.3,145.1,61,145.1,61.7L145.1,61.7z"/>
		<path class="st1" d="M161.5,76c-0.3,0-0.5,0-0.8,0v-0.2c0-1.2,0-2.3,0-3.5c0-0.2,0-0.2,0.2-0.2c0.3,0,0.7,0,0.8,0
			c0,0,0.2,0,0.2,0.2c0.2,0.2,0.2,0.5,0.2,0.7v0.2c0.2,0.3,0.2,0.8,0.3,1.2l0.2,0.2c0,0,0-0.2,0.2-0.2c0.2-0.3,0.2-0.8,0.3-1.2
			c0-0.2,0.2-0.5,0.2-0.7s0.2-0.3,0.3-0.3c0.3,0,0.5,0,0.8,0c0.2,0,0.3,0,0.3,0.2s0,0.3,0,0.5c0,1,0,1.8,0,2.8c0,0,0,0.2,0,0.3
			c-0.3,0-0.7,0-1,0c0-0.2,0-0.3,0-0.5c0-0.3,0-0.8,0-1.2c0,0,0-0.2-0.2-0.2l-0.2,0.2c-0.2,0.7-0.2,1.2-0.3,1.8c-0.3,0-0.5,0-0.7,0
			c0,0-0.2,0-0.2-0.2c-0.2-0.3-0.2-0.8-0.3-1.2c-0.2-0.3-0.2-0.7-0.3-1c0,0,0,0-0.2,0c0,0.2,0,0.3,0,0.3c0,0.5,0,1,0,1.5
			C161.5,75.7,161.5,75.8,161.5,76z"/>
		<path class="st1" d="M185.5,74c0-0.5,0-1.2,0-1.7c0-0.2,0-0.3,0.2-0.3c0.7,0,1.3-0.2,2,0.2c0.5,0.2,1.2,1,1.2,1.5
			c0,0.2,0,0.3,0,0.5c0,0.7-0.3,1.2-1,1.5c-0.3,0.2-0.5,0.2-0.8,0.2c-0.5,0-0.8,0-1.3,0c-0.2,0-0.2,0-0.2-0.2
			C185.5,75.2,185.5,74.5,185.5,74L185.5,74z M186.7,74L186.7,74c0,0.2,0,0.5,0,0.7s0.2,0.3,0.2,0.3c0.2,0,0.3,0,0.7-0.2
			s0.3-0.5,0.3-0.8c0-0.7-0.3-1-0.8-1c-0.3,0-0.3,0-0.3,0.3C186.7,73.5,186.7,73.8,186.7,74z"/>
		<path class="st1" d="M122.6,76c0-0.2,0-0.2,0-0.3c0-1,0-2.2,0-3.2c0-0.2,0.2-0.3,0.3-0.3c0.3,0,0.7,0,1,0c0.8,0,1.5,0.3,1.8,1.2
			c0.3,0.7,0.2,1.7-0.3,2.2c-0.2,0.2-0.3,0.2-0.5,0.3c-0.3,0.3-0.7,0.2-1,0.2C123.6,76,123.1,76,122.6,76z M123.8,74L123.8,74
			c0,0.2,0,0.5,0,0.7s0,0.3,0.3,0.3c0.5,0,0.8-0.3,1-0.8c0.2-0.7-0.2-1.2-0.8-1.2c-0.2,0-0.3,0-0.3,0.3
			C123.8,73.5,123.8,73.8,123.8,74z"/>
		<path class="st1" d="M140.6,76c-0.3,0-0.7,0-1,0c0-0.3,0-0.8,0-1.2s0-0.3-0.3-0.3c-0.2,0-0.3,0-0.5,0c-0.3,0-0.3,0-0.3,0.3
			s0,0.8,0,1.2c-0.3,0-0.7,0-1,0l-0.2-0.2c0-1.2,0-2.3,0-3.5c0-0.2,0-0.3,0.3-0.3c0.2,0,0.3,0,0.7,0c0.2,0,0.3,0.2,0.3,0.3
			c0,0.3,0,0.7,0,0.8s0,0.3,0.3,0.3c0.2,0,0.5,0,0.7,0c0.2,0,0.2,0,0.2-0.2c0-0.3,0-0.7,0-1c0-0.2,0-0.3,0.3-0.3c0.2,0,0.3,0,0.5,0
			c0.3,0,0.3,0,0.3,0.3c0,0.7,0,1.5,0,2.2C140.6,75,140.6,75.5,140.6,76z"/>
		<path class="st1" d="M157.9,74.7c0.2,0.2,0.3,0.3,0.5,0.5c0.2,0.2,0.3,0.3,0.3,0.7c-0.3,0-0.8,0-1.2,0c-0.2-0.3-0.3-0.7-0.7-0.8
			l0,0c0,0.3,0,0.5,0,0.8c-0.3,0-0.7,0-1,0v-0.2c0-1.2,0-2.3,0-3.3c0-0.2,0-0.2,0.2-0.2c0.7,0,1.3,0,2,0.2c0.3,0,0.7,0.5,0.8,0.8
			c0,0.2,0,0.5,0,0.7c0,0.5-0.3,0.7-0.7,0.8C158,74.7,158,74.7,157.9,74.7z M156.9,73.5c0,0.5,0,0.5,0.3,0.5s0.5-0.2,0.5-0.3
			s-0.3-0.5-0.7-0.5C156.7,73,156.9,73.3,156.9,73.5z"/>
		<path class="st1" d="M173.9,74.7c0.3,0.3,0.7,0.7,1,1.2c-0.5,0-0.8,0-1.2,0c0,0,0,0-0.2,0c-0.2-0.3-0.3-0.5-0.5-0.8l-0.2-0.2l0,0
			c0,0.3,0,0.7,0,1c-0.3,0-0.7,0-1,0c0-0.2,0-0.5,0-0.7c0-1,0-1.8,0-2.8c0-0.3,0-0.3,0.3-0.3s0.8,0,1.2,0c0.7,0,1.2,0.3,1.5,1
			c0.2,0.5,0,1.3-0.5,1.5C174.2,74.5,174,74.7,173.9,74.7z M173.2,74c0.2,0,0.2,0,0.2,0c0.2,0,0.2-0.2,0.2-0.3s0-0.3-0.2-0.5
			c-0.2-0.2-0.3-0.2-0.5-0.2c0,0,0,0.3-0.2,0.3v0.2C172.9,74,172.9,74,173.2,74z"/>
		<path class="st1" d="M179.9,76c-0.5,0-0.8,0-1.2,0c-0.3-0.5-0.5-1-0.8-1.3c0,0,0,0-0.2,0c0,0.5,0,0.8,0,1.3c-0.3,0-0.7,0-1,0
			c0-0.2,0-0.2,0-0.2c0-1,0-2.2,0-3.2c0-0.3,0-0.3,0.3-0.3c0.2,0,0.3,0,0.3,0c0.2,0,0.3,0.2,0.3,0.3c0,0.3,0,0.5,0,0.8
			c0,0.2,0,0.2,0.2,0.3l0.2-0.2c0.2-0.3,0.3-0.5,0.5-0.8c0.2-0.5,0.7-0.3,1-0.3c0.2,0,0.2,0.2,0.2,0.3c-0.3,0.3-0.5,0.8-0.8,1.2l0,0
			c-0.3,0.3-0.3,0.3,0,0.8c0.3,0.3,0.7,0.8,0.8,1.2C179.7,75.7,179.9,75.8,179.9,76z"/>
		<path class="st1" d="M170.2,75.8c-0.3,0-0.8,0-1.2,0v-0.2c0-0.2-0.2-0.3-0.3-0.3c-0.2,0-0.5,0-0.7,0c-0.3,0-0.3,0.2-0.5,0.5
			c-0.3,0-0.7,0-1.2,0c0-0.2,0-0.2,0-0.3c0.3-0.7,0.5-1.3,0.8-2c0.2-0.3,0.3-0.8,0.5-1.2c0.2-0.3,0.7-0.5,1-0.2c0,0,0,0.2,0.2,0.2
			c0.3,0.7,0.5,1.3,0.8,2c0.2,0.5,0.3,0.8,0.5,1.3C170.2,75.7,170.2,75.8,170.2,75.8z M168.2,74.7c0.3,0,0.3,0,0.3-0.3
			c0-0.2-0.2-0.3-0.2-0.5c0,0-0.2,0-0.2-0.2v0.2c0,0.2,0,0.3,0,0.5C167.9,74.5,167.9,74.7,168.2,74.7z"/>
		<path class="st1" d="M148.2,75.8c-0.3,0-0.7,0-1,0c0-0.2,0-0.2,0-0.2c0-1,0-2.2,0-3.2c0-0.5,0-0.5,0.5-0.5c0.2,0,0.5,0,0.7,0
			c0.3,0,0.8,0.2,1.2,0.2c0.5,0.2,0.8,1,0.7,1.5c-0.3,0.7-0.8,1.2-1.7,1c-0.2,0-0.2,0.2-0.2,0.2C148.2,75.3,148.2,75.7,148.2,75.8z
			 M148.2,73.3c0,0.5,0,0.5,0.5,0.5h0.2c0,0,0.2,0,0.2-0.2s0-0.5,0-0.5c-0.2-0.2-0.5-0.2-0.7-0.2v0.2
			C148.2,73.3,148.2,73.3,148.2,73.3z"/>
		<path class="st1" d="M183.7,75.8c-0.7,0-1.5,0-2.2,0c0-0.5,0-1,0-1.5c0-0.7,0-1.5,0-2.2c0-0.2,0-0.2,0.2-0.2c0.5,0,1.2,0,1.7,0
			c0.2,0,0.3,0,0.3,0.3v0.2c0,0.5,0,0.5-0.5,0.5c-0.2,0-0.3,0-0.3,0c-0.2,0-0.3,0-0.2,0.2c0,0.2,0.2,0.2,0.2,0.2c0.2,0,0.3,0,0.7,0
			c0.2,0,0.3,0,0.3,0.3c0,0.8,0,0.7-0.7,0.7H183c-0.2,0-0.3,0-0.3,0.2s0,0.3,0.2,0.3c0.2,0,0.3,0,0.5,0c0.3,0,0.3,0.2,0.3,0.3
			C183.7,75.5,183.7,75.7,183.7,75.8L183.7,75.8z"/>
		<path class="st1" d="M154.1,75.8c-0.8,0-1.5,0-2.2,0c0-0.3,0-0.5,0-0.8c0-0.8,0-1.8,0-2.7c0-0.2,0-0.3,0.3-0.3c0.5,0,1.2,0,1.7,0
			c0.2,0,0.3,0,0.3,0.3c0,0.2,0,0.2,0,0.3c0,0.3,0,0.5-0.3,0.5c-0.2,0-0.3,0-0.5,0c-0.2,0-0.3,0-0.3,0.2s0.2,0.2,0.3,0.2
			c0.2,0,0.3,0,0.7,0c0.2,0,0.3,0,0.3,0.3c0,0,0,0,0,0.2c0,0.7,0,0.7-0.7,0.7h-0.2c-0.2,0-0.3,0-0.3,0.2c0,0.2,0,0.3,0.3,0.3
			c0.2,0,0.5,0,0.7,0c0.2,0,0.3,0,0.3,0.3C154.1,75.5,154.1,75.7,154.1,75.8z"/>
		<path class="st1" d="M144.4,76c-0.3,0-0.7,0-1.2,0c0-0.2,0-0.3,0-0.5c0-0.5,0-1-0.3-1.5c-0.3-0.5-0.5-1-0.7-1.5
			c-0.2-0.3,0-0.3,0.2-0.3s0.3,0,0.5,0c0.3,0,0.5,0.2,0.5,0.3c0,0.3,0.2,0.5,0.2,0.8c0,0,0,0.2,0.2,0.2c0,0,0.2,0,0.2-0.2
			c0.2-0.3,0.3-0.7,0.3-1c0-0.2,0.2-0.2,0.3-0.2c0.2,0,0.3,0,0.5,0c0.2,0,0.3,0.2,0.3,0.3c-0.2,0.3-0.3,0.7-0.5,1
			c-0.2,0.2-0.2,0.5-0.3,0.7c-0.3,0.5-0.2,1-0.2,1.3C144.4,75.7,144.4,75.8,144.4,76z"/>
		<path class="st1" d="M131.9,76c-0.3,0-0.7,0-0.8,0c-0.2,0-0.2-0.2-0.2-0.2c0-0.7,0-1.5,0-2.2v-0.2c0-0.2-0.2-0.3-0.3-0.2
			c-0.3,0-0.3,0-0.3-0.3c0-0.7,0-0.7,0.7-0.7c0.5,0,1,0,1.5,0c0.2,0,0.3,0.2,0.3,0.3s0,0.2,0,0.3c0,0.3-0.2,0.3-0.3,0.3
			c-0.3,0-0.3,0-0.3,0.3c0,0.8,0,1.5,0,2.3C131.9,75.8,131.9,75.8,131.9,76z"/>
		<path class="st1" d="M128.6,76c-0.3,0-0.7,0-1.2,0c0-0.2,0-0.2,0-0.3c0-1,0-2.2,0-3.2c0-0.3,0-0.3,0.3-0.3c0.2,0,0.2,0,0.3,0
			c0.3,0,0.3,0,0.3,0.3c0,0.5,0,1,0,1.5s0,1.2,0,1.7C128.6,75.7,128.6,75.8,128.6,76z"/>
	</g>
</g>
<g>
	<g>
		<path class="st1" d="M53,96.5c0.2,0,0.3,0,0.3,0.2c1,0.3,1.7,1.2,1.7,2.3c0,2.7,0,5.5,0,8.2c0,1.2-0.8,2-1.8,2.3
			c-1,0.2-2-0.3-2.5-1.3c0,0,0,0,0-0.2c-0.5,0.8-1.2,1.5-2.2,1.5c-1,0-1.7-0.5-2.2-1.5c0,0,0,0.2-0.2,0.2c-0.5,0.8-1.2,1.3-2.2,1.3
			c-1.2,0-1.8-0.8-2.2-1.8c0-0.2,0-0.3,0-0.5c0-2.7,0-5.5,0-8.2c0-1.2,0.8-2,1.8-2.3h0.2c0.2,0,0.3,0,0.5,0c0,0,0,0,0.2,0
			c0.8,0.2,1.3,0.5,1.7,1.2c0.7,1.3,1.5,2.7,2.2,4.2c0,0,0,0,0.2,0.2c0,0,0-0.2,0.2-0.2c0.7-1.3,1.5-2.7,2.2-4.2
			c0.3-0.5,0.7-0.8,1.2-1c0.2,0,0.5-0.2,0.7-0.2C52.7,96.5,52.8,96.5,53,96.5z M48.4,103.3c0-0.2-0.2-0.2-0.2-0.2
			c-0.8-1.7-1.8-3.3-2.7-5c-0.3-0.7-1.2-1-2-0.8s-1.3,0.8-1.3,1.7c0,2.7,0,5.3,0,8.2c0,1,0.7,1.7,1.7,1.8c0.8,0,1.7-0.7,1.8-1.7
			c0-0.3,0-0.8,0-1.2v-0.2c0,0,0,0,0.2,0.2c0.3,0.7,0.7,1.2,1,1.8c0.3,0.7,0.8,1,1.5,1s1.2-0.3,1.5-1c0.3-0.7,0.7-1.2,1-1.8
			c0,0,0,0,0-0.2c0,0.2,0,0.2,0,0.3c0,0.3,0,0.8,0,1.2c0.2,0.8,1,1.5,1.8,1.5s1.5-0.8,1.5-1.7c0-2.7,0-5.5,0-8.2
			c0-0.5-0.2-1-0.7-1.3c-0.8-0.7-2.2-0.5-2.7,0.5c-0.7,1.3-1.5,2.8-2.2,4.2C48.9,102.6,48.5,102.9,48.4,103.3z"/>
		<path class="st1" d="M38.5,96.5c0.2,0,0.2,0,0.3,0.2c1,0.2,1.7,1,1.7,2c0.2,1.2-0.7,2.3-2,2.7l0,0c1,1.2,1,2.3,0,3.5
			c0.2,0,0.2,0,0.3,0c1,0.2,1.7,1,1.8,2c0.2,1.2-0.7,2.3-1.8,2.7c-0.2,0-0.3,0-0.5,0c-1.7,0-3.5,0-5.2,0c-1,0-2-0.8-2.3-1.8
			c0-0.2,0-0.3,0-0.5c0-2.7,0-5.3,0-8.2c0-1.2,0.8-2.2,1.8-2.3h0.2C34.9,96.5,36.7,96.5,38.5,96.5z M34.9,100.6
			C35,100.6,35,100.6,34.9,100.6c1.3,0,2.3,0,3.5,0c1,0,1.8-1,1.7-2c-0.2-0.8-0.8-1.5-1.8-1.5c-1.7,0-3.3,0-5,0c-0.2,0-0.2,0-0.3,0
			C32,97.3,31.4,98,31.4,99c0,2.7,0,5.2,0,7.8c0,0.2,0,0.3,0,0.3c0,0.8,0.8,1.5,1.7,1.5c1.8,0,3.5,0,5.3,0c1.2,0,1.8-1,1.7-2.2
			c-0.2-0.8-0.8-1.3-1.7-1.3c-1.2,0-2.2,0-3.3,0h-0.2c0-0.2,0-0.3,0-0.7H35c0.7,0,1.3,0,2,0c1,0,1.8-0.8,1.7-2
			c-0.2-0.8-0.8-1.5-1.7-1.5c-0.7,0-1.3,0-2,0h-0.2C34.9,101,34.9,100.8,34.9,100.6z"/>
		<path class="st1" d="M25.5,96.5c0.2,0,0.3,0,0.5,0.2c1.8,0.3,3.2,1.8,3.5,3.5c0.2,1.5-0.2,2.7-1.2,3.8v0.2c0.3,0.5,0.7,1,1,1.5
			c1,1.5,0.2,3.3-1.5,3.7c-1,0.2-1.8-0.2-2.3-1c-0.3-0.7-0.8-1.2-1.2-1.8c0,0,0,0-0.2-0.2v0.2c0,0.3,0,0.7,0,1c-0.2,1-1,1.7-2,1.8
			c-1.2,0.2-2.3-0.7-2.7-1.8c0-0.2,0-0.3,0-0.5c0-2.7,0-5.3,0-8.2c0-1.2,0.8-2.2,1.8-2.3h0.2C22.9,96.5,24.2,96.5,25.5,96.5z
			 M27.4,103.9C27.4,103.9,27.5,103.9,27.4,103.9c1.5-1.3,2-3.2,1-4.8c-0.7-1.2-1.7-1.8-3.2-2c-1.2,0-2.5,0-3.7,0
			c-1,0-1.7,0.8-1.7,1.8c0,0.7,0,1.5,0,2.2c0,2,0,3.8,0,5.8c0,1,0.7,1.8,1.7,1.8c1,0,1.7-0.8,1.7-1.7c0-0.7,0-1.5,0-2.2v-0.2
			c0.2,0,0.3,0,0.3,0.2c0.7,1,1.3,2,2.2,3.2c0.3,0.7,1,0.8,1.7,0.8c1.3-0.2,1.8-1.7,1.2-2.7c-0.2-0.3-0.3-0.5-0.5-0.8
			C27.9,104.8,27.7,104.3,27.4,103.9z"/>
		<path class="st1" d="M61.5,96.5c0.2,0,0.2,0,0.3,0c0.8,0.2,1.3,0.7,1.7,1.5c0.8,2.2,1.5,4.2,2.3,6.3c0.2,0.7,0.5,1.2,0.7,1.8
			c0.5,1.3-0.3,2.8-1.8,3.2c-1,0.2-2.2-0.3-2.7-1.5c-0.2-0.3-0.2-0.3-0.3-0.3c-0.3,0-0.5,0-0.8,0c-0.2,0-0.2,0-0.2,0.2
			c-0.2,0.3-0.3,0.8-0.7,1c-0.7,0.7-1.5,0.8-2.3,0.5c-0.8-0.3-1.3-1-1.5-1.8c0-0.5,0-0.8,0.2-1.2c1-2.7,2-5.3,3-8.2
			c0.3-0.8,0.8-1.3,1.8-1.5h0.2C61.2,96.5,61.3,96.5,61.5,96.5z M61.3,106.9c0.3,0,0.7,0,1,0c0,0,0.2,0,0.2,0.2
			c0,0.2,0.2,0.3,0.2,0.7c0.3,0.8,1.3,1.3,2.2,1c0.8-0.3,1.3-1.3,1-2.2c-1-2.7-2-5.3-3-8.2c-0.3-0.7-0.8-1.2-1.7-1.2
			c-0.7,0-1.3,0.5-1.7,1.2c-1,2.7-2,5.5-3,8.2c-0.2,0.3-0.2,0.5,0,0.8c0.2,0.8,0.8,1.3,1.5,1.5c0.8,0,1.5-0.3,1.8-1.2
			c0-0.2,0.2-0.3,0.2-0.5s0-0.2,0.2-0.2C60.7,106.9,61,106.9,61.3,106.9z"/>
		<path class="st1" d="M105.9,105.3c0,0.2,0,0.3-0.2,0.5c-0.3,1.5-1.3,2.7-2.8,3.2c-0.5,0.2-1.2,0.3-1.8,0.3c-2-0.2-3.7-1.7-4-3.5
			c0-0.3-0.2-0.7-0.2-1c0-1.3,0-2.7,0-4.2c0-1.2,0.5-2.3,1.5-3.2c0.7-0.5,1.3-0.8,2.2-1c0.2,0,0.2,0,0.3,0s0.5,0,0.7,0s0.3,0,0.3,0
			c1.8,0.3,3.2,1.7,3.5,3.5c0,0.2,0,0.3,0.2,0.5C105.9,102.1,105.9,103.8,105.9,105.3z M97.8,102.9L97.8,102.9c0,0.7,0,1.3,0,2
			c0,0.2,0,0.5,0,0.7c0.3,2,2.2,3.5,4.3,3c1.8-0.3,3.2-1.8,3.2-3.8c0-1.3,0-2.7,0-4c0-0.2,0-0.5,0-0.7c-0.5-2.5-3.2-3.8-5.3-2.7
			c-1.3,0.7-2,1.7-2.2,3.2C97.8,101.5,97.8,102.1,97.8,102.9z"/>
		<path class="st1" d="M82.1,96.5c0.2,0,0.3,0,0.5,0.2c1.8,0.3,3.2,1.8,3.5,3.7c0,0.2,0,0.5,0,0.7c0,1.3,0,2.8,0,4.2
			c0,2.2-1.7,3.8-3.5,4.2c-2.3,0.5-4.7-1.2-5.2-3.5c0-0.3,0-0.5,0-0.8c0-1.3,0-2.7,0-4c0-1.7,0.8-2.8,2.2-3.7
			c0.5-0.3,1.2-0.5,1.7-0.5c0,0,0,0,0.2,0C81.8,96.5,82,96.5,82.1,96.5z M85.6,102.9L85.6,102.9c0-0.7,0-1.3,0-2c0-0.2,0-0.3,0-0.5
			c-0.3-2-2.2-3.5-4.3-3.2c-1.8,0.3-3.2,1.8-3.2,3.7c0,1.3,0,2.7,0,4c0,0.2,0,0.5,0,0.7c0.3,1.7,1.7,3.2,3.7,3.2
			c0.7,0,1.2-0.2,1.7-0.5c1.3-0.7,2-1.7,2-3.2C85.6,104.4,85.6,103.6,85.6,102.9z"/>
		<path class="st1" d="M92,96.5c0.2,0,0.5,0,0.7,0.2c1.7,0.3,3,1.8,3.3,3.5c0,0.3,0,0.5,0,0.8c0,1.3,0,2.8,0,4.2c0,1-0.3,2-1.2,2.8
			c-0.7,0.8-1.5,1.3-2.5,1.5c-1.3,0.2-2.5-0.2-3.5-0.8c-0.8-0.7-1.3-1.5-1.7-2.7c0-0.2,0-0.5,0-0.7c0-1.5,0-2.8,0-4.3
			c0-1,0.3-1.8,1-2.7c0.7-0.8,1.7-1.3,2.7-1.5c0.2,0,0.2,0,0.3,0C91.6,96.5,91.8,96.5,92,96.5z M88,102.9c0,0.7,0,1.3,0,2
			c0,0.2,0,0.5,0,0.7c0.3,1.8,2.2,3.3,4.3,3c1.8-0.3,3.2-1.8,3.2-3.8c0-1.3,0-2.7,0-4c0-0.2,0-0.5,0-0.7c-0.3-2-2.2-3.3-4.3-3.2
			c-1.8,0.3-3.2,1.8-3.2,3.7C88,101.6,88,102.3,88,102.9z"/>
		<path class="st1" d="M74.2,96.5c0.2,0,0.2,0,0.3,0c1,0.2,1.7,1,1.8,2c0,0.2,0,0.3,0,0.3c0,2.7,0,5.3,0,7.8c0,1-0.5,1.8-1.3,2.2
			c-1.3,0.7-3-0.2-3.3-1.8c0-0.2,0-0.2,0-0.3c0-2,0-3.8,0-5.8c0-0.2,0-0.2-0.2-0.2c-0.8-0.5-1.5-1.3-1.3-2.3c0.2-1,0.8-1.8,1.8-2
			h0.2C72.8,96.5,73.5,96.5,74.2,96.5z M72.2,100.6C72.2,100.6,72.2,100.8,72.2,100.6c0,2.2,0,4.3,0,6.3c0,1,0.7,1.7,1.7,1.8
			c0.8,0,1.7-0.7,1.8-1.7c0-0.3,0-0.8,0-1.2c0-2.3,0-4.7,0-7c0-1-0.7-1.7-1.7-1.7c-0.5,0-1,0-1.3,0c-0.2,0-0.3,0-0.5,0
			c-0.7,0.2-1.2,0.5-1.3,1.2c-0.2,0.7,0,1.3,0.5,1.8C71.5,100.5,71.8,100.6,72.2,100.6z"/>
		<path class="st1" d="M45.2,103.3C45.2,103.4,45.2,103.4,45.2,103.3c0,1.3,0,2.5,0,3.7c0,0.7-0.5,1.2-1.2,1.2c-0.5,0-1-0.5-1-1
			v-0.2c0-2.7,0-5.3,0-8c0-0.7,0.5-1.2,1.2-1.2c0.5,0,0.7,0.2,1,0.7c0.8,1.7,1.8,3.3,2.7,5c0.2,0.3,0.3,0.7,0.5,1.2
			c0,0,0,0.2,0.2,0.2c0,0,0-0.2,0.2-0.2c1.2-2,2.2-4.2,3.3-6.2c0.2-0.3,0.7-0.7,1.2-0.7c0.5,0,0.8,0.3,1,0.8c0,0.2,0,0.2,0,0.3
			c0,2.7,0,5.3,0,8c0,0.7-0.5,1.2-1.2,1.2c-0.7,0-1-0.5-1-1c0-1.2,0-2.3,0-3.5v-0.2l0,0c0,0,0,0,0,0.2c-0.5,1-1.2,2.2-1.7,3.2
			c-0.2,0.3-0.3,0.7-0.5,1c-0.2,0.3-0.5,0.7-1,0.7c-0.5,0-0.8-0.2-1-0.7c-0.5-1-1.2-2.2-1.7-3.2C45.5,103.9,45.4,103.8,45.2,103.3
			C45.2,103.4,45.2,103.3,45.2,103.3L45.2,103.3z"/>
		<path class="st1" d="M32,102.9c0-1.3,0-2.7,0-4c0-0.7,0.5-1.2,1.2-1.2c1.7,0,3.5,0,5.2,0c0.5,0,1,0.3,1.2,1c0,0.5-0.3,1-0.8,1.2
			c-0.2,0-0.2,0-0.3,0c-1.3,0-2.5,0-3.8,0c-0.2,0-0.2,0-0.2,0.2c0,0.5,0,1,0,1.5c0,0.2,0,0.2,0.2,0.2c0.8,0,1.7,0,2.7,0
			c0.5,0,1,0.3,1,0.8c0.2,0.7-0.3,1.3-1,1.3c-0.8,0-1.8,0-2.7,0c-0.2,0-0.2,0-0.2,0.2c0,0.5,0,1,0,1.5c0,0.2,0,0.2,0.2,0.2
			c1.3,0,2.7,0,4,0c0.5,0,1,0.3,1.2,0.8c0.2,0.5-0.2,1-0.7,1.2c-0.2,0-0.3,0.2-0.5,0.2c-1.7,0-3.5,0-5.2,0c-0.7,0-1.2-0.5-1.2-1.2
			C32,105.6,32,104.3,32,102.9z"/>
		<path class="st1" d="M26.5,103.8c0,0,0,0.2,0.2,0.2c0.5,0.8,1.2,1.7,1.7,2.3c0.5,0.7,0.2,1.5-0.7,1.7c-0.3,0.2-0.8-0.2-1.2-0.5
			c-0.3-0.5-0.7-1.2-1.2-1.7c-0.3-0.7-0.8-1.2-1.2-1.8l-0.2-0.2c-0.3,0-0.7,0-1,0c-0.2,0-0.2,0-0.2,0.2c0,0.8,0,1.8,0,2.7
			c0,0.5-0.3,1-0.8,1.2c-0.7,0.2-1.3-0.3-1.3-1c0-2.7,0-5.5,0-8.2c0-0.5,0.5-1,1-1c1.2,0,2.5,0,3.7,0c1.5,0,2.7,1.2,2.8,2.5
			C28.5,101.6,27.9,102.9,26.5,103.8C26.5,103.6,26.5,103.8,26.5,103.8z M22.9,100C22.9,100.1,22.9,100.1,22.9,100
			c0,0.7,0,1.2,0,1.7c0,0.2,0,0.2,0.2,0.2c0.7,0,1.5,0,2.2,0c0,0,0,0,0.2,0c0.5-0.2,0.8-0.5,0.8-1c0-0.5-0.5-0.8-1-0.8
			C24.4,100,23.7,100,22.9,100L22.9,100z"/>
		<path class="st1" d="M65.3,106.9c0,0.5-0.3,1-0.8,1c-0.5,0.2-1-0.2-1.3-0.7c-0.2-0.3-0.3-0.7-0.3-1c0-0.2,0-0.2-0.2-0.2
			c-1,0-1.8,0-2.8,0c-0.2,0-0.2,0-0.2,0.2c-0.2,0.3-0.2,0.7-0.3,1c-0.2,0.5-0.7,0.8-1.2,0.7c-0.5,0-0.8-0.3-1-0.8c0-0.2,0-0.5,0-0.7
			c0.8-2.5,1.8-4.8,2.7-7.3c0.2-0.2,0.2-0.5,0.3-0.7c0.2-0.5,0.5-0.7,1-0.7c0.5,0,0.8,0.3,1,0.7c1,2.7,2,5.3,2.8,8
			C65.3,106.8,65.3,106.8,65.3,106.9z M60.5,104.1c0.5,0,1,0,1.5,0c-0.2-0.7-0.5-1.3-0.7-2l0,0C61,102.8,60.8,103.4,60.5,104.1z"/>
		<path class="st1" d="M98.5,102.9c0-0.7,0-1.3,0-2c0-1.3,0.7-2.3,1.8-2.8c1.8-0.8,4,0.3,4.3,2.3c0,0.2,0,0.3,0,0.7c0,1.3,0,2.7,0,4
			c0,1.5-1,2.8-2.5,3.2c-1.7,0.3-3.5-0.8-3.7-2.5c0-0.2,0-0.5,0-0.7C98.5,104.3,98.5,103.6,98.5,102.9L98.5,102.9z M102.5,102.9
			c0-0.7,0-1.3,0-2c0-0.5-0.3-0.8-0.7-0.8c-0.3-0.2-0.8,0.2-1,0.5c-0.2,0.2-0.2,0.3-0.2,0.7c0,1.2,0,2.5,0,3.7c0,0.2,0,0.2,0,0.3
			c0,0.3,0.3,0.8,1,0.8c0.5,0,1-0.5,1-1C102.5,104.3,102.5,103.6,102.5,102.9z"/>
		<path class="st1" d="M85,102.9c0,0.7,0,1.3,0,2c0,1.5-1.2,2.8-2.5,3c-1.7,0.3-3.3-0.8-3.7-2.5c0-0.2,0-0.3,0-0.5c0-1.3,0-2.7,0-4
			c0-1.5,1-2.7,2.3-3c1.8-0.5,3.5,0.7,3.8,2.5c0,0.2,0,0.3,0,0.5C85,101.6,85,102.3,85,102.9z M81,102.9c0,0.7,0,1.3,0,2
			c0,0.5,0.3,0.8,0.8,1c0.5,0,1-0.2,1-0.7c0-0.2,0-0.3,0-0.3c0-1.2,0-2.3,0-3.5c0-0.2,0-0.2,0-0.3c0-0.5-0.5-0.8-1-0.8
			c-0.5,0-0.8,0.5-0.8,1C81,101.6,81,102.3,81,102.9z"/>
		<path class="st1" d="M88.6,102.9c0-0.7,0-1.3,0-2c0-1,0.5-1.8,1.2-2.5c0.7-0.5,1.3-0.7,2.2-0.7c1.7,0.2,2.7,1.3,2.8,2.7
			c0,0.2,0,0.3,0,0.3c0,1.3,0,2.8,0,4.2c0,1.5-1.2,2.8-2.5,3c-1.7,0.3-3.3-0.8-3.7-2.5c0-0.2,0-0.3,0-0.5
			C88.6,104.3,88.6,103.6,88.6,102.9z M92.6,102.9c0-0.7,0-1.3,0-2c0-0.7-0.5-1-1.2-0.8c-0.5,0.2-0.7,0.5-0.7,1c0,0.7,0,1.3,0,2
			c0,0.7,0,1.3,0,2c0,0.5,0.5,1,1,1c0.5,0,1-0.5,1-1C92.6,104.3,92.6,103.6,92.6,102.9z"/>
		<path class="st1" d="M72.8,100c-0.2,0-0.3,0-0.5,0c-0.5,0-0.8-0.5-0.8-1s0.3-1,0.8-1h0.2c0.5,0,1,0,1.5,0c0.7,0,1.2,0.5,1.2,1.2
			c0,2.7,0,5.3,0,8.2c0,0.5-0.3,1-1,1.2c-0.5,0-1-0.3-1.2-0.8c0-0.2,0-0.2,0-0.3c0-2.3,0-4.5,0-6.8C72.8,100.1,72.8,100.1,72.8,100z
			"/>
		<path class="st1" d="M23.6,100.6c0.5,0,1.2,0,1.7,0c0.2,0,0.3,0.2,0.3,0.3s-0.2,0.3-0.3,0.3l0,0c-0.5,0-1,0-1.7,0l0,0
			C23.6,101,23.6,100.8,23.6,100.6z"/>
		<path class="st1" d="M101.3,102.9c0-0.7,0-1.3,0-2c0-0.2,0.2-0.3,0.3-0.3c0.2,0,0.3,0,0.3,0.2v0.2c0,1.3,0,2.7,0,3.8
			c0,0.2,0,0.3-0.2,0.3c-0.2,0-0.3,0-0.3-0.3C101.3,104.3,101.3,103.6,101.3,102.9C101.3,103.1,101.3,102.9,101.3,102.9z"/>
		<path class="st1" d="M81.5,102.9c0-0.7,0-1.3,0-1.8V101c0-0.2,0.2-0.3,0.3-0.3s0.3,0.2,0.3,0.3c0,0,0,0,0,0.2c0,1.3,0,2.5,0,3.8
			v0.2c0,0.2-0.2,0.2-0.3,0.2s-0.3-0.2-0.3-0.3v-0.2C81.5,104.1,81.5,103.6,81.5,102.9z"/>
		<path class="st1" d="M92,102.9c0,0.7,0,1.3,0,1.8v0.2c0,0.2-0.2,0.3-0.3,0.3s-0.3-0.2-0.3-0.3c0,0,0,0,0-0.2c0-1.3,0-2.5,0-3.8
			c0-0.2,0-0.2,0.2-0.3c0-0.2,0.2-0.2,0.3-0.2s0.2,0.2,0.2,0.2v0.2C92,101.6,92,102.3,92,102.9z"/>
	</g>
</g>
<g>
	<g>
		<path class="st1" d="M120.8,99.8c-0.5,0-0.8,0.2-1.2,0.2c-0.3,0.2-0.8,0.2-1.2,0.5c-0.7,0.3-0.7,1.2,0,1.3c0.5,0.2,1,0.3,1.5,0.3
			c1.5,0.2,3,0.2,4.5,0.3c0.7,0,1.3,0.2,2,0.5c3,1,3.8,4.7,1.7,7c-1.2,1.2-2.7,1.8-4.3,2c-1.7,0.3-3.5,0-5-0.8
			c-1.5-0.8-2.5-2-2.8-3.7c-0.2-0.8,0.3-1.5,1-1.8c0.5-0.2,1,0,1.3,0.3c0.3,0.5,0.3,0.8-0.2,1.3l-0.2,0.2c-0.5,0.7-0.5,1.2,0,1.8
			c0.8,0.8,1.8,1.3,2.8,1.7c2,0.5,3.8,0.2,5.5-1c0.8-0.5,1.3-1.3,1.2-2.3c-0.2-1.2-0.7-2-1.7-2.5c-1.2-0.5-2.3-0.7-3.7-0.8
			c-1-0.2-2.2-0.2-3.2-0.3c-0.7-0.2-1.3-0.5-1.8-1c-1-1-0.8-2.5,0.5-3.2c0.5-0.2,0.8-0.3,1.3-0.5c0,0,0.2,0,0.3,0
			C119.8,99.5,120.3,99.6,120.8,99.8z"/>
		<path class="st1" d="M122.4,99.5c0-0.2,0-0.2,0.2-0.3c1.2-1,1.2-2.5,1-3.8c-0.2-1.3-0.3-2.7-0.5-3.8c0-0.5,0-0.8,0-1.3
			c0-0.7,0.3-0.8,0.8-0.8c3,0.3,4.8,3.5,3.8,6.3c-0.8,2.2-2.7,3.7-4.8,3.7C122.8,99.5,122.6,99.5,122.4,99.5z"/>
		<path class="st1" d="M122.4,89.5c-1.7,1.7-1.2,3.5-1,5.5c0.2,1.2,0.3,2.2,0.3,3.3c0,0.2,0,0.5,0,0.7c-0.2,0.7-0.2,0.7-0.8,0.5
			c-2.2-0.5-3.8-2.2-4.2-4.2c-0.3-2,1-4.3,2.8-5.2c0.7-0.3,1.5-0.5,2.2-0.7C122.1,89.5,122.3,89.5,122.4,89.5z"/>
		<path class="st1" d="M126.1,90.1c-0.2-0.2-0.3-0.2-0.5-0.3c0.8-1.2,1.7-1.8,3.2-1.8c1,0,1.7,1,1.5,1.8c-0.2,0.3-0.5,0.7-0.8,0.8
			c-0.5,0-0.8-0.2-1-0.5c-0.2-0.3-0.3-0.8-1-0.8C126.8,89.5,126.6,89.8,126.1,90.1C126.3,90.1,126.3,90.1,126.1,90.1z"/>
		<path class="st1" d="M150.4,101.6c0-0.7,0-1.2,0-1.8c0-0.5-0.3-0.7-0.7-0.7c-0.7,0-1.3,0.5-1.3,1.2c0,0.3,0,0.8,0,1.2
			c0.2,0,0.3,0,0.3,0l0.2,0.2l-0.2,0.2c-0.3,0-0.8,0-1.2,0c-0.2,0-0.2-0.2-0.3-0.2c0.2,0,0.2-0.2,0.3-0.2c0.2,0,0.2,0,0.3,0
			c0-0.8,0-1.5,0-2.3c-0.2,0-0.3,0-0.3,0l-0.2-0.2l0.2-0.2c0.2,0,0.5,0,0.7,0c0,0.2,0,0.3,0,0.7c1.2-1,1.8-0.8,2.3,0
			c0.3-0.5,0.8-0.7,1.5-0.7c0.5,0,1,0.3,1,1s0,1.2,0,1.8c0.2,0,0.3,0,0.7,0c0,0,0,0,0,0.2c-0.2,0-0.2,0.2-0.3,0.2c-0.3,0-0.7,0-1,0
			c-0.2,0-0.2-0.2-0.3-0.2c0.2,0,0.2-0.2,0.3-0.2c0,0,0.2,0,0.3,0c0-0.7,0-1.3,0-2c0-0.2-0.3-0.5-0.5-0.5c-0.7-0.2-1.3,0.3-1.5,1.2
			c0,0.5,0,0.8,0,1.3h0.2c0.2,0,0.3,0.2,0.5,0.2c-0.2,0-0.3,0.2-0.5,0.2c-0.3,0-0.5,0-0.8,0c-0.2,0-0.2-0.2-0.3-0.2
			c0.2,0,0.2-0.2,0.3-0.2C150.1,101.6,150.2,101.8,150.4,101.6z"/>
		<path class="st1" d="M133.9,101.6c-1,0.7-2,0.7-2.5,0c-0.5-0.7-0.5-1.7,0.2-2.3s1.7-0.7,2.5,0.2c0-0.2,0-0.3,0-0.5
			c0.7-0.2,0.8-0.2,0.8,0.3c-0.2,0-0.3,0-0.5,0c0,0.2,0,0.3,0,0.5c0,0.8,0,1.8,0,2.7c0,0.7-0.3,1.3-1,1.7c-0.7,0.3-1.3,0.2-1.8-0.3
			v-0.2c0.2,0,0.3,0,0.5,0c1,0.5,2,0.2,2.2-1.2C133.9,102.1,133.9,102,133.9,101.6z M132.6,99.3c-0.7,0-1.3,0.5-1.3,1.3
			c0,0.7,0.5,1.3,1.3,1.3c0.7,0,1.3-0.5,1.3-1.3S133.4,99.3,132.6,99.3z"/>
		<path class="st1" d="M180.9,96.3c-0.2-0.2-0.5-0.2-0.7-0.3c0.2,0,0.3-0.2,0.7-0.2c0.2,0,0.2,0,0.3,0c0,1.2,0,2.5,0,3.7
			c0.5-0.2,0.8-0.5,1.3-0.5c0.7-0.2,1,0.3,1.2,1c0,0.7,0,1.2,0,1.8c0.2,0,0.3,0,0.5,0c0.2,0.3,0,0.3-0.3,0.3c-1.2,0-1.3,0-1.3-0.3
			c0.2,0,0.3,0,0.7,0c0-0.7,0-1.3,0-1.8c0-0.3-0.3-0.5-0.7-0.7c-0.7,0-1.3,0.5-1.3,1.2c0,0.3,0,0.8,0,1.3c0.2,0,0.2,0,0.3,0
			c0.2,0,0.2,0.2,0.3,0.2c-0.2,0-0.2,0.2-0.3,0.2c-0.3,0-0.7,0-1,0c-0.2,0-0.2-0.2-0.3-0.2c0.2,0,0.2-0.2,0.3-0.2c0.2,0,0.2,0,0.3,0
			C180.9,99.8,180.9,98,180.9,96.3z"/>
		<path class="st1" d="M166.9,99.5c0-0.2,0-0.2,0-0.2c0-0.2,0.2-0.3,0.2-0.3c0,0.2,0.2,0.3,0.2,0.3c0,0.8,0,1.5,0,2.3
			c0.2,0,0.3,0,0.5,0c0,0.3,0,0.3-0.8,0.3c0-0.2,0-0.3,0-0.5c-0.5,0.5-1,0.7-1.7,0.5c-0.3-0.2-0.7-0.3-1-0.5
			c-0.5-0.7-0.5-1.7,0.2-2.2C165,98.6,166,98.6,166.9,99.5z M165.5,101.8c0.7,0,1.3-0.5,1.3-1.2c0-0.7-0.5-1.3-1.3-1.3
			c-0.7,0-1.3,0.5-1.3,1.3C164.2,101.3,164.9,101.8,165.5,101.8z"/>
		<path class="st1" d="M172.9,99.5c0.2-0.2,0.2-0.3,0.3-0.5h0.2c0,0.8,0,1.8,0,2.8c0.2,0,0.3,0,0.5,0c0.2,0.3,0,0.5-0.8,0.3
			c0-0.2,0-0.3,0-0.3c-0.5,0.2-0.8,0.3-1.3,0.3c-0.5,0-1-0.2-1.3-0.7c-0.5-0.7-0.5-1.7,0.2-2.2C171,98.6,171.9,98.6,172.9,99.5z
			 M171.5,101.8c0.7,0,1.3-0.5,1.3-1.3c0-0.7-0.5-1.3-1.3-1.3c-0.7,0-1.3,0.5-1.3,1.3C170.2,101.1,170.9,101.8,171.5,101.8z"/>
		<path class="st1" d="M144.7,101.8c0.2,0,0.3,0,0.5,0c0,0.3,0,0.3-0.8,0.3c0-0.2,0-0.3,0-0.5c-0.3,0.2-0.8,0.5-1.2,0.5
			c-0.8,0.2-1.2-0.3-1.2-1c0-0.5,0-1.2,0-1.8c-0.2,0-0.3,0-0.7,0c0-0.3,0-0.3,1-0.3c0,0.7,0,1.2,0,1.8c0,0.8,0.2,1,0.7,1
			c0.7,0,1.3-0.3,1.3-1c0-0.5,0-1,0-1.5c-0.2,0-0.3,0-0.5,0c0-0.3,0-0.5,0.8-0.3C144.7,99.8,144.7,100.8,144.7,101.8z"/>
		<path class="st1" d="M189.3,102.1c0-0.2,0-0.3,0-0.7c-0.3,0.5-0.8,0.7-1.3,0.7c-0.7,0-1-0.3-1-1s0-1.2,0-1.8c-0.2,0-0.3,0-0.5,0
			c0-0.3,0-0.5,1-0.3c0,0.7,0,1.2,0,1.8s0.2,1,0.7,1c0.7,0,1.3-0.3,1.3-0.8c0-0.5,0-1,0-1.5c-0.2,0-0.3,0-0.5,0c0-0.3,0-0.5,0.8-0.3
			c0,0.8,0,1.8,0,2.7h0.2c0.2,0,0.3,0.2,0.5,0.2c-0.2,0-0.3,0.2-0.5,0.2C189.7,102.1,189.5,102.1,189.3,102.1z"/>
		<path class="st1" d="M192.5,101.3c0.2,0.2,0.3,0.5,0.5,0.5c0.3,0.2,0.7,0.2,0.8-0.3c0.2-0.3,0.2-0.5-0.2-0.7
			c-0.2-0.2-0.5-0.2-0.7-0.3c-0.3-0.2-0.5-0.3-0.5-0.7c0-0.3,0.2-0.7,0.5-0.8c0.3,0,0.7,0,1,0.2c0.2,0,0.2,0.3,0.2,0.7
			c0,0-0.2,0.2-0.3,0.3c0-0.5-0.2-0.8-0.5-0.7c-0.2,0-0.5,0.2-0.5,0.3c0,0.2,0.2,0.3,0.3,0.5c0.2,0.2,0.5,0.2,0.7,0.3
			c0.7,0.3,0.5,1.3,0,1.5c-0.3,0.2-1.2,0.2-1.5,0C192.5,101.8,192.3,101.6,192.5,101.3C192.3,101.3,192.5,101.3,192.5,101.3z"/>
		<path class="st1" d="M157.4,100c0-0.7-0.3-0.8-0.8-0.7c-0.2,0-0.3,0.2-0.3,0.3s0.2,0.3,0.2,0.3c0.2,0.2,0.5,0.2,0.8,0.3
			c0.3,0.2,0.7,0.5,0.5,1c0,0.5-0.3,0.7-0.8,0.8c-0.2,0-0.3,0-0.5,0c-0.7,0-0.7-0.2-0.7-1c0.2,0.2,0.3,0.2,0.3,0.3
			c0,0.3,0.3,0.3,0.7,0.3s0.7-0.2,0.7-0.5c0.2-0.3,0-0.5-0.3-0.7c-0.2-0.2-0.5-0.2-0.7-0.3c-0.3-0.2-0.5-0.3-0.5-0.7
			c0-0.3,0.2-0.7,0.5-0.8c0.3,0,0.7,0,1,0.2c0.2,0,0.2,0.3,0.2,0.7C157.7,99.6,157.5,99.8,157.4,100z"/>
		<path class="st1" d="M137.1,101.8c0.2,0,0.3,0,0.5,0c0-0.8,0-1.7,0-2.3c-0.2,0-0.3,0-0.5,0c0-0.3,0-0.5,0.8-0.3c0,0,0,0.2,0,0.3
			s0,0.2,0,0.2c0.3-0.2,0.8-0.5,1.2-0.7l0.2,0.2c-0.2,0.2-0.2,0.2-0.3,0.3c-0.8,0.2-1,0.5-1,1.3c0,0.3,0,0.7,0,1.2
			c0.2,0,0.3,0,0.7,0c-0.2,0.2-0.3,0.3-0.3,0.3c-0.3,0-0.8,0-1.2,0C137.1,102.1,137.1,102,137.1,101.8
			C136.9,101.8,137.1,101.8,137.1,101.8z"/>
		<path class="st1" d="M175.9,101.8c0.2,0,0.3,0,0.5,0c0-0.8,0-1.5,0-2.3c-0.2,0-0.3,0-0.5,0l-0.2-0.2l0.2-0.2c0.2,0,0.5,0,0.7,0
			c0,0.2,0,0.3,0,0.5c0.3-0.2,0.8-0.5,1.2-0.7l0.2,0.2c-0.2,0.2-0.2,0.2-0.3,0.3c-0.8,0.3-1,0.5-1,1.3c0,0.3,0,0.7,0,1h0.2
			c0.2,0,0.3,0.2,0.5,0.2c-0.2,0-0.3,0.2-0.5,0.2c-0.3,0-0.5,0-0.8,0C176,102.1,175.9,102,175.9,101.8L175.9,101.8z"/>
	</g>
</g>
<g class="st2">
	<path class="st3" d="M100.3,96.5c-0.8-5.2-2.2-13.5-1.8-18c1-4.2,4.7-5.3,8.8-7.8c7.7-5.2,17.5-8.3,20.3-17.3
		c0.3-5.2-4.3-8.5-8.5-8.8c-8-0.5-16.5,9.8-18.8,14.1c-2,3.7-1.2,8.5-6,9.7c-4,0.8-9.2-2.7-9.8-5.3c-1-3.7,4.2-12.3,6-15
		c6.2-9.3,21.8-18.8,36.8-13c7.2,2.8,15.3,8.8,14.6,18.8c-1,16-19.1,21-27.5,29.5c-1,5.5,4,15.6-2.8,17.3
		C105.4,102.1,101,101.6,100.3,96.5z M114.8,120.4c-3.5,5-13.5,1.8-14.1-3c-0.5-4,1.7-5.7,4.8-6.7
		C112.8,109.1,118.6,115.1,114.8,120.4z"/>
</g>
</svg>
