<?xml version="1.0" encoding="utf-8"?>
<!-- Generator: Adobe Illustrator 24.0.1, SVG Export Plug-In . SVG Version: 6.00 Build 0)  -->
<svg version="1.1" id="Lag_1" xmlns="http://www.w3.org/2000/svg" xmlns:xlink="http://www.w3.org/1999/xlink" x="0px" y="0px"
	 viewBox="0 0 100 71.42" style="enable-background:new 0 0 100 71.42;" xml:space="preserve">
<style type="text/css">
	.st0{fill:#9F8B77;}
</style>
<path class="st0" d="M69.16,14.18h-9.93V8.82c-0.41-3.68-3.48-3.43-3.48-3.43s-11.97-0.13-15.41,0c-3.44,0.13-3.35,3.55-3.35,3.55
	v5.23H26.21c0,0-5.96,3.9,0.35,6.92h42.61C78.01,16.85,69.16,14.18,69.16,14.18z M41.82,14.18v-3.9l12.64,0.02l0.04,3.88H41.82z"/>
<path class="st0" d="M26.18,22.81l4.21,43.32c1.05,5,5.17,4.91,5.17,4.91h25.17c4.38,0.09,4.91-4.73,4.91-4.73l4.3-43.5L26.18,22.81
	L26.18,22.81z M37.49,62.54L35.3,28.69c2.28-2.54,3.77,0,3.77,0l2.28,33.85C38.9,67.1,37.49,62.54,37.49,62.54z M50.12,62.8
	c-1.84,3.6-3.94,0-3.94,0V28.86c2.37-3.07,3.94,0,3.94,0V62.8z M58.71,62.98c-1.84,3.16-3.68,0-3.68,0l1.93-34.29
	c2.98-2.72,3.94,0.62,3.94,0.62L58.71,62.98z"/>
</svg>
