<?xml version="1.0" encoding="utf-8"?>
<!-- Generator: Adobe Illustrator 23.0.6, SVG Export Plug-In . SVG Version: 6.00 Build 0)  -->
<svg version="1.1" id="Lag_1" xmlns="http://www.w3.org/2000/svg" xmlns:xlink="http://www.w3.org/1999/xlink" x="0px" y="0px"
	 viewBox="0 0 65.9 62.3" style="enable-background:new 0 0 65.9 62.3;" xml:space="preserve">
<style type="text/css">
	.st0{fill:#9F8B77;}
</style>
<path class="st0" d="M52.4,25.2l-3.5-0.6c-0.4-1.6-1.2-3-1.2-3s1.5-2.1,2.2-3.2c0.7-1.1-0.3-2.5-0.3-2.5s-2.7-2.8-3.7-3.6
	c-1-0.8-2.6,0-2.6,0l-2.9,2.1c-1.1-0.9-3.2-1.3-3.2-1.3s-0.3-1.6-0.5-3.4c-0.3-1.8-2.2-1.9-2.2-1.9h-4.8c-1.8,0-2.1,1.7-2.1,1.7
	l-0.6,3.7l-3.1,1.3c0,0-1.2-1-2.6-2c-1.4-1-2.9,0-2.9,0s-2.9,2.8-3.7,3.7c-0.8,0.9-0.2,2.5-0.2,2.5l2.2,3.3c-0.2,0.2-1.3,3-1.3,3
	s-1.9,0.3-3.5,0.6c-1.7,0.3-1.8,2.2-1.8,2.2s0,3.3,0,4.8c0,1.4,1.9,2.1,1.9,2.1l3.6,0.6c0,0.6,1.3,3,1.3,3s-1.3,1.9-2.2,3
	c-0.8,1.1,0.2,2.4,0.2,2.4s2.7,2.9,3.7,3.8c1,0.9,2.6,0.1,2.6,0.1l3-2.1C25,46,27,46.6,27,46.6s0.2,1.6,0.6,3.4c0.3,1.8,2.2,2,2.2,2
	h4.7c1.8-0.4,2.2-1.8,2.2-1.8l0.6-3.6c1.5-0.3,3.1-1.3,3.1-1.3s0.7,0.5,2.6,1.8c1.9,1.3,3.2,0,3.2,0s3-2.9,3.6-3.7s0.1-2.3,0.1-2.3
	L47.7,38C48.2,37.5,49,35,49,35s1.9-0.3,3.5-0.6c1.6-0.3,1.9-2.1,1.9-2.1s0-2.9,0-4.7S52.4,25.2,52.4,25.2z M32.2,39.2
	c-5.2,0-9.3-4.2-9.3-9.3c0-5.2,4.2-9.3,9.3-9.3c5.2,0,9.3,4.2,9.3,9.3C41.5,35,37.3,39.2,32.2,39.2z"/>
</svg>
