<?xml version="1.0" encoding="utf-8"?>
<!-- Generator: Adobe Illustrator 23.0.6, SVG Export Plug-In . SVG Version: 6.00 Build 0)  -->
<svg version="1.1" id="Lag_1" xmlns="http://www.w3.org/2000/svg" xmlns:xlink="http://www.w3.org/1999/xlink" x="0px" y="0px"
	 viewBox="0 0 417.5 218.9" style="enable-background:new 0 0 417.5 218.9;" xml:space="preserve">
<rect x="43.7" y="20.4" width="3.3" height="172.7"/>
<rect x="50.3" y="20.4" width="3.3" height="172.7"/>
<rect x="207.3" y="20.4" width="3.3" height="135.4"/>
<rect x="214" y="20.4" width="3.3" height="135.4"/>
<rect x="222.4" y="20.4" width="3.3" height="135.4"/>
<rect x="229.1" y="20.4" width="3.3" height="172.2"/>
<rect x="235.7" y="20.4" width="3.3" height="172.2"/>
<rect x="268.7" y="20.4" width="3.3" height="135.4"/>
<rect x="280.9" y="20.4" width="3.3" height="135.4"/>
<rect x="297.8" y="20.4" width="3.3" height="135.4"/>
<rect x="319.5" y="20.4" width="3.3" height="135.4"/>
<rect x="332.5" y="20.4" width="3.3" height="135.4"/>
<rect x="341.6" y="20.4" width="3.3" height="135.4"/>
<rect x="347.5" y="20.4" width="3.3" height="135.4"/>
<rect x="374.2" y="20.4" width="3.3" height="135.4"/>
<rect x="383.3" y="20.4" width="3.3" height="172.2"/>
<rect x="390.3" y="20.4" width="3.3" height="172.2"/>
<rect x="77.3" y="20.4" width="3.3" height="135.4"/>
<rect x="87.8" y="20.4" width="3.3" height="135.4"/>
<rect x="114.5" y="20.4" width="3.3" height="135.4"/>
<rect x="160.4" y="20.4" width="3.3" height="135.4"/>
<rect x="64.5" y="20.4" width="8.9" height="135.5"/>
<rect x="140.5" y="20.4" width="8.9" height="135.5"/>
<rect x="171.4" y="20.4" width="8.9" height="135.5"/>
<rect x="182.9" y="20.4" width="8.9" height="135.5"/>
<rect x="122.8" y="20.4" width="14" height="135.5"/>
<rect x="96.5" y="20.4" width="14" height="135.5"/>
<rect x="243.2" y="20.4" width="8.9" height="135.5"/>
<rect x="254.8" y="20.4" width="8.9" height="135.5"/>
<rect x="307.7" y="20.4" width="8.9" height="135.5"/>
<rect x="361.3" y="20.4" width="8.9" height="135.5"/>
<g>
	<path d="M21.7,170.6h14v3.9H25l-1.4,6.9l0.1,0.1c0.6-0.7,1.3-1.2,2.3-1.5c0.9-0.3,1.8-0.5,2.7-0.5c1.3,0,2.5,0.2,3.6,0.7
		c1.1,0.5,1.9,1.1,2.7,1.9c0.7,0.8,1.3,1.8,1.6,2.9c0.4,1.1,0.6,2.3,0.6,3.6c0,1.1-0.2,2.2-0.5,3.3c-0.3,1.1-0.9,2.2-1.7,3.1
		c-0.8,0.9-1.7,1.7-2.9,2.3c-1.2,0.6-2.6,0.9-4.2,0.9c-1.3,0-2.5-0.2-3.6-0.5c-1.1-0.3-2.1-0.9-3-1.6c-0.8-0.7-1.5-1.6-2-2.6
		c-0.5-1-0.8-2.2-0.8-3.6h4.4c0.1,1.5,0.6,2.6,1.5,3.4c0.9,0.8,2,1.2,3.5,1.2c0.9,0,1.7-0.2,2.4-0.5c0.6-0.3,1.2-0.7,1.6-1.3
		c0.4-0.5,0.7-1.2,0.8-1.9c0.2-0.7,0.3-1.5,0.3-2.3c0-0.7-0.1-1.5-0.3-2.1c-0.2-0.7-0.5-1.3-0.9-1.8c-0.4-0.5-0.9-0.9-1.6-1.2
		c-0.7-0.3-1.4-0.5-2.3-0.5c-0.9,0-1.8,0.2-2.6,0.5c-0.8,0.3-1.4,1-1.8,2h-4.4L21.7,170.6z"/>
</g>
<g>
	<path d="M98.6,170.1c1.9,0,3.5,0.4,4.7,1.3c1.2,0.9,2.2,2,2.9,3.4c0.7,1.4,1.1,2.9,1.4,4.5c0.2,1.6,0.4,3.2,0.4,4.8
		s-0.1,3.1-0.4,4.8c-0.2,1.6-0.7,3.2-1.4,4.5c-0.7,1.4-1.6,2.5-2.9,3.4c-1.2,0.9-2.8,1.3-4.7,1.3s-3.5-0.4-4.7-1.3
		c-1.2-0.9-2.2-2-2.9-3.4c-0.7-1.4-1.1-2.9-1.4-4.5c-0.2-1.6-0.4-3.2-0.4-4.8s0.1-3.1,0.4-4.8c0.2-1.6,0.7-3.2,1.4-4.5
		c0.7-1.4,1.6-2.5,2.9-3.4C95.1,170.5,96.7,170.1,98.6,170.1z M98.6,194.5c1,0,1.8-0.3,2.4-0.8c0.6-0.6,1.2-1.3,1.5-2.2
		c0.4-0.9,0.6-2,0.8-3.3c0.2-1.3,0.2-2.6,0.2-4c0-1.4-0.1-2.7-0.2-4c-0.2-1.2-0.4-2.3-0.8-3.3c-0.4-1-0.9-1.7-1.5-2.3
		c-0.6-0.6-1.4-0.8-2.4-0.8c-1,0-1.8,0.3-2.4,0.8c-0.6,0.6-1.1,1.3-1.5,2.3c-0.4,1-0.6,2.1-0.8,3.3c-0.2,1.2-0.2,2.6-0.2,4
		c0,1.4,0.1,2.8,0.2,4c0.2,1.3,0.4,2.4,0.8,3.3c0.4,0.9,0.9,1.7,1.5,2.2C96.8,194.2,97.7,194.5,98.6,194.5z"/>
	<path d="M115.6,190.8c0.1,1.1,0.5,2,1.2,2.7c0.7,0.7,1.6,1,2.8,1c1.2,0,2.1-0.3,2.8-0.9c0.7-0.6,1.3-1.4,1.6-2.4
		c0.4-0.9,0.6-1.9,0.8-3c0.1-1.1,0.3-2.1,0.3-3l-0.1-0.1c-0.6,1.1-1.4,1.9-2.4,2.4c-1,0.6-2.2,0.8-3.4,0.8c-1.3,0-2.5-0.2-3.5-0.7
		c-1-0.4-1.9-1-2.7-1.8c-0.7-0.8-1.3-1.7-1.7-2.9c-0.4-1.1-0.6-2.4-0.6-3.8c0-1.3,0.2-2.5,0.6-3.6c0.4-1.1,1-2.1,1.8-2.9
		c0.8-0.8,1.8-1.5,2.9-2c1.2-0.5,2.5-0.7,3.9-0.7c1.9,0,3.5,0.4,4.7,1.1c1.2,0.7,2.2,1.7,2.9,3c0.7,1.3,1.2,2.8,1.5,4.5
		c0.3,1.7,0.4,3.6,0.4,5.5c0,1.6-0.2,3.3-0.5,4.9c-0.3,1.6-0.9,3.1-1.7,4.5c-0.8,1.4-1.8,2.5-3.1,3.3c-1.3,0.8-2.9,1.3-4.8,1.3
		c-1.1,0-2.1-0.2-3.1-0.5c-1-0.4-1.8-0.9-2.5-1.5c-0.7-0.6-1.3-1.4-1.8-2.3c-0.5-0.9-0.7-1.9-0.8-3H115.6z M119.8,173.7
		c-0.8,0-1.5,0.1-2.1,0.4c-0.6,0.3-1.1,0.7-1.5,1.2c-0.4,0.5-0.7,1.1-0.9,1.8c-0.2,0.7-0.3,1.4-0.3,2.1c0,0.7,0.1,1.5,0.3,2.1
		c0.2,0.7,0.5,1.3,0.9,1.8c0.4,0.5,0.9,0.9,1.5,1.3c0.6,0.3,1.3,0.5,2.1,0.5c0.8,0,1.5-0.2,2.2-0.5c0.6-0.3,1.1-0.7,1.5-1.3
		c0.4-0.5,0.7-1.1,0.9-1.8c0.2-0.7,0.3-1.4,0.3-2.1c0-0.7-0.1-1.4-0.3-2.1c-0.2-0.7-0.5-1.3-0.9-1.8c-0.4-0.5-0.9-0.9-1.5-1.2
		C121.3,173.9,120.6,173.7,119.8,173.7z"/>
	<path d="M132.9,175.1c0.9,0,1.8-0.1,2.7-0.2c0.9-0.2,1.7-0.4,2.4-0.8c0.7-0.4,1.3-0.8,1.8-1.4c0.5-0.6,0.8-1.3,1-2.1h3.6v27h-4.8
		v-19.1h-6.6V175.1z"/>
	<path d="M172.3,197.7h-18.5c0-2.2,0.6-4.2,1.6-5.9c1.1-1.7,2.5-3.1,4.3-4.4c0.9-0.6,1.8-1.3,2.7-1.9c1-0.6,1.8-1.3,2.6-2
		c0.8-0.7,1.5-1.4,2-2.3c0.5-0.8,0.8-1.7,0.8-2.8c0-0.5-0.1-1-0.2-1.6c-0.1-0.6-0.3-1.1-0.7-1.5c-0.3-0.5-0.8-0.9-1.4-1.2
		c-0.6-0.3-1.4-0.5-2.3-0.5c-0.9,0-1.6,0.2-2.2,0.5c-0.6,0.3-1,0.8-1.4,1.4c-0.3,0.6-0.6,1.3-0.8,2.1c-0.2,0.8-0.3,1.7-0.3,2.7h-4.4
		c0-1.5,0.2-2.9,0.6-4.2c0.4-1.3,1-2.4,1.8-3.3c0.8-0.9,1.8-1.7,2.9-2.2c1.1-0.5,2.5-0.8,4-0.8c1.6,0,3,0.3,4.1,0.8
		c1.1,0.5,2,1.2,2.7,2c0.7,0.8,1.2,1.7,1.4,2.7c0.3,1,0.4,1.9,0.4,2.8c0,1.1-0.2,2.1-0.5,2.9c-0.3,0.9-0.8,1.7-1.4,2.4
		c-0.6,0.7-1.2,1.4-1.9,2c-0.7,0.6-1.5,1.2-2.2,1.7c-0.8,0.5-1.5,1.1-2.3,1.5c-0.8,0.5-1.5,1-2.1,1.5c-0.7,0.5-1.2,1-1.7,1.5
		c-0.5,0.5-0.8,1.1-1,1.7h13.2V197.7z"/>
	<path d="M175.1,170.6h18.5v3.7c-1.4,1.6-2.7,3.3-3.9,5c-1.2,1.7-2.2,3.5-3,5.4c-0.9,1.9-1.6,3.9-2.1,6.1c-0.5,2.1-0.9,4.4-1.1,6.9
		h-4.8c0.2-2.1,0.5-4.2,1.1-6.3c0.6-2.1,1.3-4.1,2.2-6.1c0.9-2,2-3.8,3.2-5.6c1.2-1.8,2.5-3.5,3.9-5.1h-14V170.6z"/>
	<path d="M200,170.6h14v3.9h-10.7l-1.4,6.9l0.1,0.1c0.6-0.7,1.3-1.2,2.3-1.5c0.9-0.3,1.8-0.5,2.7-0.5c1.3,0,2.5,0.2,3.6,0.7
		c1.1,0.5,1.9,1.1,2.7,1.9c0.7,0.8,1.3,1.8,1.6,2.9c0.4,1.1,0.6,2.3,0.6,3.6c0,1.1-0.2,2.2-0.5,3.3c-0.3,1.1-0.9,2.2-1.7,3.1
		c-0.8,0.9-1.7,1.7-2.9,2.3c-1.2,0.6-2.6,0.9-4.2,0.9c-1.3,0-2.5-0.2-3.6-0.5c-1.1-0.3-2.1-0.9-3-1.6c-0.8-0.7-1.5-1.6-2-2.6
		c-0.5-1-0.8-2.2-0.8-3.6h4.4c0.1,1.5,0.6,2.6,1.5,3.4c0.9,0.8,2,1.2,3.5,1.2c0.9,0,1.7-0.2,2.4-0.5c0.6-0.3,1.2-0.7,1.6-1.3
		c0.4-0.5,0.7-1.2,0.8-1.9c0.2-0.7,0.3-1.5,0.3-2.3c0-0.7-0.1-1.5-0.3-2.1c-0.2-0.7-0.5-1.3-0.9-1.8c-0.4-0.5-0.9-0.9-1.6-1.2
		c-0.7-0.3-1.4-0.5-2.3-0.5c-0.9,0-1.8,0.2-2.6,0.5c-0.8,0.3-1.4,1-1.8,2h-4.4L200,170.6z"/>
</g>
<g>
	<path d="M250.6,170.6h18.5v3.7c-1.4,1.6-2.7,3.3-3.9,5c-1.2,1.7-2.2,3.5-3,5.4c-0.9,1.9-1.6,3.9-2.1,6.1c-0.5,2.1-0.9,4.4-1.1,6.9
		h-4.8c0.2-2.1,0.5-4.2,1.1-6.3c0.6-2.1,1.3-4.1,2.2-6.1c0.9-2,2-3.8,3.2-5.6c1.2-1.8,2.5-3.5,3.9-5.1h-14V170.6z"/>
	<path d="M290.7,197.7h-18.5c0-2.2,0.6-4.2,1.6-5.9c1.1-1.7,2.5-3.1,4.3-4.4c0.9-0.6,1.8-1.3,2.7-1.9c1-0.6,1.8-1.3,2.6-2
		c0.8-0.7,1.5-1.4,2-2.3c0.5-0.8,0.8-1.7,0.8-2.8c0-0.5-0.1-1-0.2-1.6c-0.1-0.6-0.3-1.1-0.7-1.5c-0.3-0.5-0.8-0.9-1.4-1.2
		c-0.6-0.3-1.4-0.5-2.3-0.5c-0.9,0-1.6,0.2-2.2,0.5c-0.6,0.3-1,0.8-1.4,1.4c-0.3,0.6-0.6,1.3-0.8,2.1c-0.2,0.8-0.3,1.7-0.3,2.7h-4.4
		c0-1.5,0.2-2.9,0.6-4.2c0.4-1.3,1-2.4,1.8-3.3c0.8-0.9,1.8-1.7,2.9-2.2c1.1-0.5,2.5-0.8,4-0.8c1.6,0,3,0.3,4.1,0.8
		c1.1,0.5,2,1.2,2.7,2c0.7,0.8,1.2,1.7,1.4,2.7c0.3,1,0.4,1.9,0.4,2.8c0,1.1-0.2,2.1-0.5,2.9c-0.3,0.9-0.8,1.7-1.4,2.4
		c-0.6,0.7-1.2,1.4-1.9,2c-0.7,0.6-1.5,1.2-2.2,1.7c-0.8,0.5-1.5,1.1-2.3,1.5c-0.8,0.5-1.5,1-2.1,1.5c-0.7,0.5-1.2,1-1.7,1.5
		c-0.5,0.5-0.8,1.1-1,1.7h13.2V197.7z"/>
	<path d="M312.4,191.2h-3.5v6.4h-4.2v-6.4h-11.6v-4.4l11.6-16.3h4.2v17.1h3.5V191.2z M296.6,187.8h8.2v-11.9h-0.1L296.6,187.8z"/>
	<path d="M315.8,175.1c0.9,0,1.8-0.1,2.7-0.2c0.9-0.2,1.7-0.4,2.4-0.8c0.7-0.4,1.3-0.8,1.8-1.4c0.5-0.6,0.8-1.3,1-2.1h3.6v27h-4.8
		v-19.1h-6.6V175.1z"/>
	<path d="M350.4,177.5c-0.1-1.1-0.5-2-1.2-2.7c-0.7-0.7-1.6-1-2.8-1c-0.8,0-1.5,0.1-2.1,0.4c-0.6,0.3-1.1,0.7-1.5,1.2
		c-0.4,0.5-0.7,1-1,1.7c-0.2,0.6-0.4,1.3-0.6,2c-0.2,0.7-0.3,1.4-0.3,2.1c-0.1,0.7-0.1,1.3-0.2,1.9l0.1,0.1c0.6-1.1,1.4-1.9,2.5-2.4
		c1-0.5,2.2-0.8,3.4-0.8c1.3,0,2.5,0.2,3.6,0.7c1.1,0.5,2,1.1,2.7,1.9c0.7,0.8,1.3,1.8,1.7,2.9c0.4,1.1,0.6,2.3,0.6,3.6
		c0,1.3-0.2,2.5-0.6,3.6c-0.4,1.1-1,2.1-1.8,2.9c-0.8,0.8-1.8,1.5-2.9,2c-1.1,0.5-2.3,0.7-3.7,0.7c-2,0-3.6-0.4-4.9-1.1
		c-1.3-0.7-2.3-1.7-3-3c-0.7-1.3-1.2-2.8-1.5-4.5c-0.3-1.7-0.4-3.6-0.4-5.5c0-1.6,0.2-3.3,0.5-4.9c0.3-1.6,0.9-3.1,1.7-4.5
		c0.8-1.4,1.8-2.5,3.1-3.3c1.3-0.8,2.9-1.3,4.8-1.3c1.1,0,2.1,0.2,3.1,0.5c1,0.4,1.8,0.9,2.5,1.5c0.7,0.6,1.3,1.4,1.8,2.3
		c0.5,0.9,0.7,1.9,0.8,3H350.4z M346.2,194.5c0.8,0,1.5-0.2,2.1-0.5c0.6-0.3,1.1-0.7,1.5-1.3c0.4-0.5,0.7-1.1,0.9-1.8
		c0.2-0.7,0.3-1.4,0.3-2.1c0-0.7-0.1-1.4-0.3-2.1c-0.2-0.7-0.5-1.3-0.9-1.8c-0.4-0.5-0.9-0.9-1.5-1.2c-0.6-0.3-1.3-0.5-2.1-0.5
		c-0.8,0-1.5,0.1-2.1,0.4c-0.6,0.3-1.1,0.7-1.5,1.2c-0.4,0.5-0.7,1.1-0.9,1.8c-0.2,0.7-0.3,1.4-0.3,2.1c0,0.7,0.1,1.5,0.3,2.1
		c0.2,0.7,0.5,1.3,0.9,1.8c0.4,0.5,0.9,0.9,1.5,1.3C344.7,194.4,345.4,194.5,346.2,194.5z"/>
	<path d="M361.4,170.6h14v3.9h-10.7l-1.4,6.9l0.1,0.1c0.6-0.7,1.3-1.2,2.3-1.5c0.9-0.3,1.8-0.5,2.7-0.5c1.3,0,2.5,0.2,3.6,0.7
		c1.1,0.5,1.9,1.1,2.7,1.9c0.7,0.8,1.3,1.8,1.6,2.9c0.4,1.1,0.6,2.3,0.6,3.6c0,1.1-0.2,2.2-0.5,3.3c-0.3,1.1-0.9,2.2-1.7,3.1
		c-0.8,0.9-1.7,1.7-2.9,2.3c-1.2,0.6-2.6,0.9-4.2,0.9c-1.3,0-2.5-0.2-3.6-0.5c-1.1-0.3-2.1-0.9-3-1.6c-0.9-0.7-1.5-1.6-2-2.6
		c-0.5-1-0.8-2.2-0.8-3.6h4.4c0.1,1.5,0.6,2.6,1.5,3.4c0.9,0.8,2,1.2,3.5,1.2c0.9,0,1.7-0.2,2.4-0.5c0.6-0.3,1.2-0.7,1.6-1.3
		c0.4-0.5,0.7-1.2,0.8-1.9c0.2-0.7,0.3-1.5,0.3-2.3c0-0.7-0.1-1.5-0.3-2.1c-0.2-0.7-0.5-1.3-0.9-1.8c-0.4-0.5-0.9-0.9-1.6-1.2
		c-0.7-0.3-1.4-0.5-2.3-0.5c-0.9,0-1.8,0.2-2.6,0.5c-0.8,0.3-1.4,1-1.8,2h-4.4L361.4,170.6z"/>
</g>
</svg>
