<?xml version="1.0" encoding="utf-8"?>
<!-- Generator: Adobe Illustrator 24.0.1, SVG Export Plug-In . SVG Version: 6.00 Build 0)  -->
<svg version="1.1" id="Lag_1" xmlns="http://www.w3.org/2000/svg" xmlns:xlink="http://www.w3.org/1999/xlink" x="0px" y="0px"
	 viewBox="0 0 100 71.42" style="enable-background:new 0 0 100 71.42;" xml:space="preserve">
<style type="text/css">
	.st0{fill:#F0E13B;}
</style>
<path class="st0" d="M99.82,44.27c0,0,0.16-1.14-0.48-2.53c-0.64-1.39-5.89-13.18-5.89-13.18s-3.23-5.32-8.56-5.57
	c-5.32-0.25-75.61,0-75.61,0S2.26,22.42,0,31.17V59c0,0-0.16,3.19,4.2,4.59l9.04,0.08c0,0,1.45,6.45,8.07,6.74
	c6.62,0.29,8.74-6.8,8.74-6.8h39.43c0,0,1.61,7.34,9.2,6.77c7.59-0.58,7.66-6.77,7.66-6.77h8.87c0,0,4.2,0.31,4.6-4.94
	C100.23,53.44,99.82,44.27,99.82,44.27z M9.21,43.06c-1.18,0-2.14-0.98-2.14-2.17V28.95c0-1.19,0.96-2.17,2.14-2.17h10.09
	c1.18,0,2.14,0.98,2.14,2.17v11.94c0,1.19-0.96,2.17-2.14,2.17H9.21z M21.77,66.66c-2.64,0-4.77-2.17-4.77-4.84
	c0-2.67,2.14-4.84,4.77-4.84c2.63,0,4.77,2.17,4.77,4.84C26.54,64.49,24.41,66.66,21.77,66.66z M39.59,40.89
	c0,1.19-0.96,2.17-2.14,2.17H27.36c-1.18,0-2.14-0.98-2.14-2.17V28.95c0-1.19,0.96-2.17,2.14-2.17h10.09c1.18,0,2.14,0.98,2.14,2.17
	V40.89z M57.94,40.89c0,1.19-0.96,2.17-2.14,2.17H45.71c-1.18,0-2.14-0.98-2.14-2.17V28.95c0-1.19,0.96-2.17,2.14-2.17H55.8
	c1.18,0,2.14,0.98,2.14,2.17V40.89z M63.95,43.06c-1.18,0-2.14-0.98-2.14-2.17V28.95c0-1.19,0.96-2.17,2.14-2.17h10.09
	c1.18,0,2.14,0.98,2.14,2.17v11.94c0,1.19-0.96,2.17-2.14,2.17H63.95z M78.12,66.66c-2.64,0-4.77-2.17-4.77-4.84
	c0-2.67,2.14-4.84,4.77-4.84c2.63,0,4.77,2.17,4.77,4.84C82.89,64.49,80.75,66.66,78.12,66.66z M96.03,44.25
	c-0.19,0.22-0.61,0.06-1.48-0.06c-0.5-0.07-1.01-0.08-1.51-0.12c-2.34-0.21-2.61-0.13-4.14-0.33c-0.64-0.09-0.58-0.1-1.35-0.2
	c-1.2-0.16-2.17-0.25-2.82-0.28c-0.87-0.06-1.75-0.13-2.62-0.18c-1.18,0-2.14-0.98-2.14-2.17V28.95c0-1.19,0.96-2.17,2.14-2.17h2.62
	c0.58,0.1,1.32,0.29,2.12,0.67c1.5,0.72,2.44,1.75,2.93,2.39c2.05,4.46,4.09,8.92,6.14,13.38C96.21,43.92,96.11,44.16,96.03,44.25z"
	/>
</svg>
